<mxfile host="app.diagrams.net" modified="2021-07-10T13:03:21.771Z" agent="5.0 (Macintosh; Intel Mac OS X 10_15_7) AppleWebKit/537.36 (KHTML, like Gecko) Chrome/90.0.4430.212 Safari/537.36 Edg/90.0.818.62" etag="t_eGE_RuhFJHU5cinDCI" version="14.8.5" type="github">
  <diagram id="yhbvuhnJUq1IDcSg3t92" name="第 1 页">
    <mxGraphModel dx="1378" dy="691" grid="1" gridSize="10" guides="1" tooltips="1" connect="1" arrows="1" fold="1" page="1" pageScale="1" pageWidth="1200" pageHeight="1920" math="0" shadow="0">
      <root>
        <mxCell id="0" />
        <mxCell id="1" parent="0" />
        <mxCell id="A7s9LG4rhOwQnNxICcNo-1" style="rounded=0;orthogonalLoop=1;jettySize=auto;html=1;endArrow=none;endFill=0;fillColor=#d5e8d4;strokeColor=#82b366;strokeWidth=3;" edge="1" parent="1" source="A7s9LG4rhOwQnNxICcNo-3" target="A7s9LG4rhOwQnNxICcNo-8">
          <mxGeometry relative="1" as="geometry">
            <mxPoint x="373" y="1187" as="targetPoint" />
          </mxGeometry>
        </mxCell>
        <mxCell id="A7s9LG4rhOwQnNxICcNo-2" value="2" style="edgeLabel;html=1;align=center;verticalAlign=middle;resizable=0;points=[];" vertex="1" connectable="0" parent="A7s9LG4rhOwQnNxICcNo-1">
          <mxGeometry x="0.16" y="2" relative="1" as="geometry">
            <mxPoint x="-11" y="-8" as="offset" />
          </mxGeometry>
        </mxCell>
        <mxCell id="A7s9LG4rhOwQnNxICcNo-3" value="&lt;font style=&quot;font-size: 12px&quot;&gt;A&lt;/font&gt;" style="ellipse;whiteSpace=wrap;html=1;aspect=fixed;fillColor=#dae8fc;strokeColor=#6c8ebf;" vertex="1" parent="1">
          <mxGeometry x="287" y="1201" width="29" height="29" as="geometry" />
        </mxCell>
        <mxCell id="A7s9LG4rhOwQnNxICcNo-4" value="" style="edgeStyle=none;rounded=0;orthogonalLoop=1;jettySize=auto;html=1;endArrow=none;endFill=0;" edge="1" parent="1" source="A7s9LG4rhOwQnNxICcNo-8" target="A7s9LG4rhOwQnNxICcNo-11">
          <mxGeometry relative="1" as="geometry" />
        </mxCell>
        <mxCell id="A7s9LG4rhOwQnNxICcNo-5" value="3" style="edgeLabel;html=1;align=center;verticalAlign=middle;resizable=0;points=[];" vertex="1" connectable="0" parent="A7s9LG4rhOwQnNxICcNo-4">
          <mxGeometry x="0.1281" y="1" relative="1" as="geometry">
            <mxPoint x="3" y="-12" as="offset" />
          </mxGeometry>
        </mxCell>
        <mxCell id="A7s9LG4rhOwQnNxICcNo-6" value="" style="edgeStyle=none;rounded=0;orthogonalLoop=1;jettySize=auto;html=1;endArrow=none;endFill=0;" edge="1" parent="1" source="A7s9LG4rhOwQnNxICcNo-8" target="A7s9LG4rhOwQnNxICcNo-25">
          <mxGeometry relative="1" as="geometry" />
        </mxCell>
        <mxCell id="A7s9LG4rhOwQnNxICcNo-7" value="1" style="edgeLabel;html=1;align=center;verticalAlign=middle;resizable=0;points=[];" vertex="1" connectable="0" parent="A7s9LG4rhOwQnNxICcNo-6">
          <mxGeometry x="-0.0103" y="1" relative="1" as="geometry">
            <mxPoint x="-8" y="-5" as="offset" />
          </mxGeometry>
        </mxCell>
        <mxCell id="A7s9LG4rhOwQnNxICcNo-8" value="B" style="ellipse;whiteSpace=wrap;html=1;aspect=fixed;" vertex="1" parent="1">
          <mxGeometry x="366" y="1172" width="29" height="29" as="geometry" />
        </mxCell>
        <mxCell id="A7s9LG4rhOwQnNxICcNo-9" style="edgeStyle=none;rounded=0;orthogonalLoop=1;jettySize=auto;html=1;exitX=0.5;exitY=1;exitDx=0;exitDy=0;entryX=0.367;entryY=0.03;entryDx=0;entryDy=0;endArrow=none;endFill=0;entryPerimeter=0;" edge="1" parent="1" source="A7s9LG4rhOwQnNxICcNo-11" target="A7s9LG4rhOwQnNxICcNo-14">
          <mxGeometry relative="1" as="geometry" />
        </mxCell>
        <mxCell id="A7s9LG4rhOwQnNxICcNo-10" value="5" style="edgeLabel;html=1;align=center;verticalAlign=middle;resizable=0;points=[];" vertex="1" connectable="0" parent="A7s9LG4rhOwQnNxICcNo-9">
          <mxGeometry x="0.2637" relative="1" as="geometry">
            <mxPoint x="7" y="-6" as="offset" />
          </mxGeometry>
        </mxCell>
        <mxCell id="A7s9LG4rhOwQnNxICcNo-11" value="E" style="ellipse;whiteSpace=wrap;html=1;aspect=fixed;" vertex="1" parent="1">
          <mxGeometry x="441" y="1183" width="29" height="29" as="geometry" />
        </mxCell>
        <mxCell id="A7s9LG4rhOwQnNxICcNo-12" value="" style="edgeStyle=none;rounded=0;orthogonalLoop=1;jettySize=auto;html=1;endArrow=none;endFill=0;" edge="1" parent="1" source="A7s9LG4rhOwQnNxICcNo-14" target="A7s9LG4rhOwQnNxICcNo-21">
          <mxGeometry relative="1" as="geometry" />
        </mxCell>
        <mxCell id="A7s9LG4rhOwQnNxICcNo-13" value="8" style="edgeLabel;html=1;align=center;verticalAlign=middle;resizable=0;points=[];" vertex="1" connectable="0" parent="A7s9LG4rhOwQnNxICcNo-12">
          <mxGeometry x="-0.1766" y="-1" relative="1" as="geometry">
            <mxPoint x="1" y="11" as="offset" />
          </mxGeometry>
        </mxCell>
        <mxCell id="A7s9LG4rhOwQnNxICcNo-14" value="F" style="ellipse;whiteSpace=wrap;html=1;aspect=fixed;" vertex="1" parent="1">
          <mxGeometry x="456" y="1258" width="29" height="29" as="geometry" />
        </mxCell>
        <mxCell id="A7s9LG4rhOwQnNxICcNo-15" value="" style="edgeStyle=none;rounded=0;orthogonalLoop=1;jettySize=auto;html=1;endArrow=none;endFill=0;" edge="1" parent="1" source="A7s9LG4rhOwQnNxICcNo-21" target="A7s9LG4rhOwQnNxICcNo-24">
          <mxGeometry relative="1" as="geometry" />
        </mxCell>
        <mxCell id="A7s9LG4rhOwQnNxICcNo-16" value="5" style="edgeLabel;html=1;align=center;verticalAlign=middle;resizable=0;points=[];" vertex="1" connectable="0" parent="A7s9LG4rhOwQnNxICcNo-15">
          <mxGeometry x="-0.0423" y="-1" relative="1" as="geometry">
            <mxPoint x="-3" y="13" as="offset" />
          </mxGeometry>
        </mxCell>
        <mxCell id="A7s9LG4rhOwQnNxICcNo-17" value="" style="edgeStyle=none;rounded=0;orthogonalLoop=1;jettySize=auto;html=1;endArrow=none;endFill=0;entryX=0.5;entryY=1;entryDx=0;entryDy=0;" edge="1" parent="1" source="A7s9LG4rhOwQnNxICcNo-21" target="A7s9LG4rhOwQnNxICcNo-8">
          <mxGeometry relative="1" as="geometry" />
        </mxCell>
        <mxCell id="A7s9LG4rhOwQnNxICcNo-18" value="7" style="edgeLabel;html=1;align=center;verticalAlign=middle;resizable=0;points=[];" vertex="1" connectable="0" parent="A7s9LG4rhOwQnNxICcNo-17">
          <mxGeometry x="0.0801" y="2" relative="1" as="geometry">
            <mxPoint x="-7" y="8" as="offset" />
          </mxGeometry>
        </mxCell>
        <mxCell id="A7s9LG4rhOwQnNxICcNo-19" value="" style="edgeStyle=none;rounded=0;orthogonalLoop=1;jettySize=auto;html=1;endArrow=none;endFill=0;" edge="1" parent="1" source="A7s9LG4rhOwQnNxICcNo-21" target="A7s9LG4rhOwQnNxICcNo-11">
          <mxGeometry relative="1" as="geometry" />
        </mxCell>
        <mxCell id="A7s9LG4rhOwQnNxICcNo-20" value="1" style="edgeLabel;html=1;align=center;verticalAlign=middle;resizable=0;points=[];" vertex="1" connectable="0" parent="A7s9LG4rhOwQnNxICcNo-19">
          <mxGeometry x="-0.0141" y="2" relative="1" as="geometry">
            <mxPoint x="-5" y="-9" as="offset" />
          </mxGeometry>
        </mxCell>
        <mxCell id="A7s9LG4rhOwQnNxICcNo-21" value="D" style="ellipse;whiteSpace=wrap;html=1;aspect=fixed;" vertex="1" parent="1">
          <mxGeometry x="385" y="1264" width="29" height="29" as="geometry" />
        </mxCell>
        <mxCell id="A7s9LG4rhOwQnNxICcNo-22" value="" style="edgeStyle=none;rounded=0;orthogonalLoop=1;jettySize=auto;html=1;endArrow=none;endFill=0;fillColor=#d5e8d4;strokeColor=#82b366;strokeWidth=3;" edge="1" parent="1" source="A7s9LG4rhOwQnNxICcNo-24" target="A7s9LG4rhOwQnNxICcNo-3">
          <mxGeometry relative="1" as="geometry" />
        </mxCell>
        <mxCell id="A7s9LG4rhOwQnNxICcNo-23" value="10" style="edgeLabel;html=1;align=center;verticalAlign=middle;resizable=0;points=[];" vertex="1" connectable="0" parent="A7s9LG4rhOwQnNxICcNo-22">
          <mxGeometry x="-0.0233" y="1" relative="1" as="geometry">
            <mxPoint x="-12" y="3" as="offset" />
          </mxGeometry>
        </mxCell>
        <mxCell id="A7s9LG4rhOwQnNxICcNo-24" value="C" style="ellipse;whiteSpace=wrap;html=1;aspect=fixed;" vertex="1" parent="1">
          <mxGeometry x="297" y="1266" width="29" height="29" as="geometry" />
        </mxCell>
        <mxCell id="A7s9LG4rhOwQnNxICcNo-25" value="G" style="ellipse;whiteSpace=wrap;html=1;aspect=fixed;" vertex="1" parent="1">
          <mxGeometry x="399" y="1108" width="29" height="29" as="geometry" />
        </mxCell>
        <mxCell id="A7s9LG4rhOwQnNxICcNo-26" value="" style="shape=table;html=1;whiteSpace=wrap;startSize=0;container=1;collapsible=0;childLayout=tableLayout;" vertex="1" parent="1">
          <mxGeometry x="267.5" y="1322" width="240" height="60" as="geometry" />
        </mxCell>
        <mxCell id="A7s9LG4rhOwQnNxICcNo-27" value="" style="shape=partialRectangle;html=1;whiteSpace=wrap;collapsible=0;dropTarget=0;pointerEvents=0;fillColor=none;top=0;left=0;bottom=0;right=0;points=[[0,0.5],[1,0.5]];portConstraint=eastwest;" vertex="1" parent="A7s9LG4rhOwQnNxICcNo-26">
          <mxGeometry width="240" height="30" as="geometry" />
        </mxCell>
        <mxCell id="A7s9LG4rhOwQnNxICcNo-28" style="shape=partialRectangle;html=1;whiteSpace=wrap;connectable=0;fillColor=none;top=0;left=0;bottom=0;right=0;overflow=hidden;" vertex="1" parent="A7s9LG4rhOwQnNxICcNo-27">
          <mxGeometry width="30" height="30" as="geometry" />
        </mxCell>
        <mxCell id="A7s9LG4rhOwQnNxICcNo-29" value="A" style="shape=partialRectangle;html=1;whiteSpace=wrap;connectable=0;fillColor=none;top=0;left=0;bottom=0;right=0;overflow=hidden;" vertex="1" parent="A7s9LG4rhOwQnNxICcNo-27">
          <mxGeometry x="30" width="30" height="30" as="geometry" />
        </mxCell>
        <mxCell id="A7s9LG4rhOwQnNxICcNo-30" value="B" style="shape=partialRectangle;html=1;whiteSpace=wrap;connectable=0;fillColor=none;top=0;left=0;bottom=0;right=0;overflow=hidden;" vertex="1" parent="A7s9LG4rhOwQnNxICcNo-27">
          <mxGeometry x="60" width="30" height="30" as="geometry" />
        </mxCell>
        <mxCell id="A7s9LG4rhOwQnNxICcNo-31" value="C" style="shape=partialRectangle;html=1;whiteSpace=wrap;connectable=0;fillColor=none;top=0;left=0;bottom=0;right=0;overflow=hidden;" vertex="1" parent="A7s9LG4rhOwQnNxICcNo-27">
          <mxGeometry x="90" width="30" height="30" as="geometry" />
        </mxCell>
        <mxCell id="A7s9LG4rhOwQnNxICcNo-32" value="D" style="shape=partialRectangle;html=1;whiteSpace=wrap;connectable=0;fillColor=none;top=0;left=0;bottom=0;right=0;overflow=hidden;" vertex="1" parent="A7s9LG4rhOwQnNxICcNo-27">
          <mxGeometry x="120" width="30" height="30" as="geometry" />
        </mxCell>
        <mxCell id="A7s9LG4rhOwQnNxICcNo-33" value="E" style="shape=partialRectangle;html=1;whiteSpace=wrap;connectable=0;fillColor=none;top=0;left=0;bottom=0;right=0;overflow=hidden;" vertex="1" parent="A7s9LG4rhOwQnNxICcNo-27">
          <mxGeometry x="150" width="30" height="30" as="geometry" />
        </mxCell>
        <mxCell id="A7s9LG4rhOwQnNxICcNo-34" value="F" style="shape=partialRectangle;html=1;whiteSpace=wrap;connectable=0;fillColor=none;top=0;left=0;bottom=0;right=0;overflow=hidden;" vertex="1" parent="A7s9LG4rhOwQnNxICcNo-27">
          <mxGeometry x="180" width="30" height="30" as="geometry" />
        </mxCell>
        <mxCell id="A7s9LG4rhOwQnNxICcNo-35" value="G" style="shape=partialRectangle;html=1;whiteSpace=wrap;connectable=0;fillColor=none;top=0;left=0;bottom=0;right=0;overflow=hidden;" vertex="1" parent="A7s9LG4rhOwQnNxICcNo-27">
          <mxGeometry x="210" width="30" height="30" as="geometry" />
        </mxCell>
        <mxCell id="A7s9LG4rhOwQnNxICcNo-36" value="" style="shape=partialRectangle;html=1;whiteSpace=wrap;collapsible=0;dropTarget=0;pointerEvents=0;fillColor=none;top=0;left=0;bottom=0;right=0;points=[[0,0.5],[1,0.5]];portConstraint=eastwest;" vertex="1" parent="A7s9LG4rhOwQnNxICcNo-26">
          <mxGeometry y="30" width="240" height="30" as="geometry" />
        </mxCell>
        <mxCell id="A7s9LG4rhOwQnNxICcNo-37" value="d" style="shape=partialRectangle;html=1;whiteSpace=wrap;connectable=0;fillColor=none;top=0;left=0;bottom=0;right=0;overflow=hidden;" vertex="1" parent="A7s9LG4rhOwQnNxICcNo-36">
          <mxGeometry width="30" height="30" as="geometry" />
        </mxCell>
        <mxCell id="A7s9LG4rhOwQnNxICcNo-38" value="0" style="shape=partialRectangle;html=1;whiteSpace=wrap;connectable=0;fillColor=none;top=0;left=0;bottom=0;right=0;overflow=hidden;" vertex="1" parent="A7s9LG4rhOwQnNxICcNo-36">
          <mxGeometry x="30" width="30" height="30" as="geometry" />
        </mxCell>
        <mxCell id="A7s9LG4rhOwQnNxICcNo-39" value="2" style="shape=partialRectangle;html=1;whiteSpace=wrap;connectable=0;fillColor=none;top=0;left=0;bottom=0;right=0;overflow=hidden;" vertex="1" parent="A7s9LG4rhOwQnNxICcNo-36">
          <mxGeometry x="60" width="30" height="30" as="geometry" />
        </mxCell>
        <mxCell id="A7s9LG4rhOwQnNxICcNo-40" value="10" style="shape=partialRectangle;html=1;whiteSpace=wrap;connectable=0;fillColor=none;top=0;left=0;bottom=0;right=0;overflow=hidden;" vertex="1" parent="A7s9LG4rhOwQnNxICcNo-36">
          <mxGeometry x="90" width="30" height="30" as="geometry" />
        </mxCell>
        <mxCell id="A7s9LG4rhOwQnNxICcNo-41" value="inf" style="shape=partialRectangle;html=1;whiteSpace=wrap;connectable=0;fillColor=none;top=0;left=0;bottom=0;right=0;overflow=hidden;" vertex="1" parent="A7s9LG4rhOwQnNxICcNo-36">
          <mxGeometry x="120" width="30" height="30" as="geometry" />
        </mxCell>
        <mxCell id="A7s9LG4rhOwQnNxICcNo-42" value="inf" style="shape=partialRectangle;html=1;whiteSpace=wrap;connectable=0;fillColor=none;top=0;left=0;bottom=0;right=0;overflow=hidden;" vertex="1" parent="A7s9LG4rhOwQnNxICcNo-36">
          <mxGeometry x="150" width="30" height="30" as="geometry" />
        </mxCell>
        <mxCell id="A7s9LG4rhOwQnNxICcNo-43" value="inf" style="shape=partialRectangle;html=1;whiteSpace=wrap;connectable=0;fillColor=none;top=0;left=0;bottom=0;right=0;overflow=hidden;" vertex="1" parent="A7s9LG4rhOwQnNxICcNo-36">
          <mxGeometry x="180" width="30" height="30" as="geometry" />
        </mxCell>
        <mxCell id="A7s9LG4rhOwQnNxICcNo-44" value="inf" style="shape=partialRectangle;html=1;whiteSpace=wrap;connectable=0;fillColor=none;top=0;left=0;bottom=0;right=0;overflow=hidden;" vertex="1" parent="A7s9LG4rhOwQnNxICcNo-36">
          <mxGeometry x="210" width="30" height="30" as="geometry" />
        </mxCell>
        <mxCell id="A7s9LG4rhOwQnNxICcNo-45" value="" style="shape=flexArrow;endArrow=classic;html=1;" edge="1" parent="1">
          <mxGeometry width="50" height="50" relative="1" as="geometry">
            <mxPoint x="549.9999999999998" y="1207" as="sourcePoint" />
            <mxPoint x="626" y="1207" as="targetPoint" />
          </mxGeometry>
        </mxCell>
        <mxCell id="A7s9LG4rhOwQnNxICcNo-46" style="rounded=0;orthogonalLoop=1;jettySize=auto;html=1;endArrow=none;endFill=0;fillColor=#dae8fc;strokeColor=#6c8ebf;strokeWidth=3;" edge="1" parent="1" source="A7s9LG4rhOwQnNxICcNo-48" target="A7s9LG4rhOwQnNxICcNo-53">
          <mxGeometry relative="1" as="geometry">
            <mxPoint x="763" y="1187" as="targetPoint" />
          </mxGeometry>
        </mxCell>
        <mxCell id="A7s9LG4rhOwQnNxICcNo-47" value="2" style="edgeLabel;html=1;align=center;verticalAlign=middle;resizable=0;points=[];" vertex="1" connectable="0" parent="A7s9LG4rhOwQnNxICcNo-46">
          <mxGeometry x="0.16" y="2" relative="1" as="geometry">
            <mxPoint x="-11" y="-8" as="offset" />
          </mxGeometry>
        </mxCell>
        <mxCell id="A7s9LG4rhOwQnNxICcNo-48" value="&lt;font style=&quot;font-size: 12px&quot;&gt;A&lt;/font&gt;" style="ellipse;whiteSpace=wrap;html=1;aspect=fixed;fillColor=#dae8fc;strokeColor=#6c8ebf;" vertex="1" parent="1">
          <mxGeometry x="677" y="1201" width="29" height="29" as="geometry" />
        </mxCell>
        <mxCell id="A7s9LG4rhOwQnNxICcNo-49" value="" style="edgeStyle=none;rounded=0;orthogonalLoop=1;jettySize=auto;html=1;endArrow=none;endFill=0;fillColor=#d5e8d4;strokeColor=#82b366;strokeWidth=3;" edge="1" parent="1" source="A7s9LG4rhOwQnNxICcNo-53" target="A7s9LG4rhOwQnNxICcNo-56">
          <mxGeometry relative="1" as="geometry" />
        </mxCell>
        <mxCell id="A7s9LG4rhOwQnNxICcNo-50" value="3" style="edgeLabel;html=1;align=center;verticalAlign=middle;resizable=0;points=[];" vertex="1" connectable="0" parent="A7s9LG4rhOwQnNxICcNo-49">
          <mxGeometry x="0.1281" y="1" relative="1" as="geometry">
            <mxPoint x="3" y="-12" as="offset" />
          </mxGeometry>
        </mxCell>
        <mxCell id="A7s9LG4rhOwQnNxICcNo-51" value="" style="edgeStyle=none;rounded=0;orthogonalLoop=1;jettySize=auto;html=1;endArrow=none;endFill=0;fillColor=#d5e8d4;strokeColor=#82b366;strokeWidth=3;" edge="1" parent="1" source="A7s9LG4rhOwQnNxICcNo-53" target="A7s9LG4rhOwQnNxICcNo-70">
          <mxGeometry relative="1" as="geometry" />
        </mxCell>
        <mxCell id="A7s9LG4rhOwQnNxICcNo-52" value="1" style="edgeLabel;html=1;align=center;verticalAlign=middle;resizable=0;points=[];" vertex="1" connectable="0" parent="A7s9LG4rhOwQnNxICcNo-51">
          <mxGeometry x="-0.0103" y="1" relative="1" as="geometry">
            <mxPoint x="-8" y="-5" as="offset" />
          </mxGeometry>
        </mxCell>
        <mxCell id="A7s9LG4rhOwQnNxICcNo-53" value="B" style="ellipse;whiteSpace=wrap;html=1;aspect=fixed;fillColor=#dae8fc;strokeColor=#6c8ebf;" vertex="1" parent="1">
          <mxGeometry x="756" y="1172" width="29" height="29" as="geometry" />
        </mxCell>
        <mxCell id="A7s9LG4rhOwQnNxICcNo-54" style="edgeStyle=none;rounded=0;orthogonalLoop=1;jettySize=auto;html=1;exitX=0.5;exitY=1;exitDx=0;exitDy=0;entryX=0.367;entryY=0.03;entryDx=0;entryDy=0;endArrow=none;endFill=0;entryPerimeter=0;" edge="1" parent="1" source="A7s9LG4rhOwQnNxICcNo-56" target="A7s9LG4rhOwQnNxICcNo-59">
          <mxGeometry relative="1" as="geometry" />
        </mxCell>
        <mxCell id="A7s9LG4rhOwQnNxICcNo-55" value="5" style="edgeLabel;html=1;align=center;verticalAlign=middle;resizable=0;points=[];" vertex="1" connectable="0" parent="A7s9LG4rhOwQnNxICcNo-54">
          <mxGeometry x="0.2637" relative="1" as="geometry">
            <mxPoint x="7" y="-6" as="offset" />
          </mxGeometry>
        </mxCell>
        <mxCell id="A7s9LG4rhOwQnNxICcNo-56" value="E" style="ellipse;whiteSpace=wrap;html=1;aspect=fixed;" vertex="1" parent="1">
          <mxGeometry x="831" y="1183" width="29" height="29" as="geometry" />
        </mxCell>
        <mxCell id="A7s9LG4rhOwQnNxICcNo-57" value="" style="edgeStyle=none;rounded=0;orthogonalLoop=1;jettySize=auto;html=1;endArrow=none;endFill=0;" edge="1" parent="1" source="A7s9LG4rhOwQnNxICcNo-59" target="A7s9LG4rhOwQnNxICcNo-66">
          <mxGeometry relative="1" as="geometry" />
        </mxCell>
        <mxCell id="A7s9LG4rhOwQnNxICcNo-58" value="8" style="edgeLabel;html=1;align=center;verticalAlign=middle;resizable=0;points=[];" vertex="1" connectable="0" parent="A7s9LG4rhOwQnNxICcNo-57">
          <mxGeometry x="-0.1766" y="-1" relative="1" as="geometry">
            <mxPoint x="1" y="11" as="offset" />
          </mxGeometry>
        </mxCell>
        <mxCell id="A7s9LG4rhOwQnNxICcNo-59" value="F" style="ellipse;whiteSpace=wrap;html=1;aspect=fixed;" vertex="1" parent="1">
          <mxGeometry x="846" y="1258" width="29" height="29" as="geometry" />
        </mxCell>
        <mxCell id="A7s9LG4rhOwQnNxICcNo-60" value="" style="edgeStyle=none;rounded=0;orthogonalLoop=1;jettySize=auto;html=1;endArrow=none;endFill=0;" edge="1" parent="1" source="A7s9LG4rhOwQnNxICcNo-66" target="A7s9LG4rhOwQnNxICcNo-69">
          <mxGeometry relative="1" as="geometry" />
        </mxCell>
        <mxCell id="A7s9LG4rhOwQnNxICcNo-61" value="5" style="edgeLabel;html=1;align=center;verticalAlign=middle;resizable=0;points=[];" vertex="1" connectable="0" parent="A7s9LG4rhOwQnNxICcNo-60">
          <mxGeometry x="-0.0423" y="-1" relative="1" as="geometry">
            <mxPoint x="-3" y="13" as="offset" />
          </mxGeometry>
        </mxCell>
        <mxCell id="A7s9LG4rhOwQnNxICcNo-62" value="" style="edgeStyle=none;rounded=0;orthogonalLoop=1;jettySize=auto;html=1;endArrow=none;endFill=0;entryX=0.5;entryY=1;entryDx=0;entryDy=0;fillColor=#d5e8d4;strokeColor=#82b366;strokeWidth=3;" edge="1" parent="1" source="A7s9LG4rhOwQnNxICcNo-66" target="A7s9LG4rhOwQnNxICcNo-53">
          <mxGeometry relative="1" as="geometry" />
        </mxCell>
        <mxCell id="A7s9LG4rhOwQnNxICcNo-63" value="7" style="edgeLabel;html=1;align=center;verticalAlign=middle;resizable=0;points=[];" vertex="1" connectable="0" parent="A7s9LG4rhOwQnNxICcNo-62">
          <mxGeometry x="0.0801" y="2" relative="1" as="geometry">
            <mxPoint x="-7" y="8" as="offset" />
          </mxGeometry>
        </mxCell>
        <mxCell id="A7s9LG4rhOwQnNxICcNo-64" value="" style="edgeStyle=none;rounded=0;orthogonalLoop=1;jettySize=auto;html=1;endArrow=none;endFill=0;" edge="1" parent="1" source="A7s9LG4rhOwQnNxICcNo-66" target="A7s9LG4rhOwQnNxICcNo-56">
          <mxGeometry relative="1" as="geometry" />
        </mxCell>
        <mxCell id="A7s9LG4rhOwQnNxICcNo-65" value="1" style="edgeLabel;html=1;align=center;verticalAlign=middle;resizable=0;points=[];" vertex="1" connectable="0" parent="A7s9LG4rhOwQnNxICcNo-64">
          <mxGeometry x="-0.0141" y="2" relative="1" as="geometry">
            <mxPoint x="-5" y="-9" as="offset" />
          </mxGeometry>
        </mxCell>
        <mxCell id="A7s9LG4rhOwQnNxICcNo-66" value="D" style="ellipse;whiteSpace=wrap;html=1;aspect=fixed;" vertex="1" parent="1">
          <mxGeometry x="775" y="1264" width="29" height="29" as="geometry" />
        </mxCell>
        <mxCell id="A7s9LG4rhOwQnNxICcNo-67" value="" style="edgeStyle=none;rounded=0;orthogonalLoop=1;jettySize=auto;html=1;endArrow=none;endFill=0;fillColor=#d5e8d4;strokeColor=#82b366;strokeWidth=3;" edge="1" parent="1" source="A7s9LG4rhOwQnNxICcNo-69" target="A7s9LG4rhOwQnNxICcNo-48">
          <mxGeometry relative="1" as="geometry" />
        </mxCell>
        <mxCell id="A7s9LG4rhOwQnNxICcNo-68" value="10" style="edgeLabel;html=1;align=center;verticalAlign=middle;resizable=0;points=[];" vertex="1" connectable="0" parent="A7s9LG4rhOwQnNxICcNo-67">
          <mxGeometry x="-0.0233" y="1" relative="1" as="geometry">
            <mxPoint x="-12" y="3" as="offset" />
          </mxGeometry>
        </mxCell>
        <mxCell id="A7s9LG4rhOwQnNxICcNo-69" value="C" style="ellipse;whiteSpace=wrap;html=1;aspect=fixed;" vertex="1" parent="1">
          <mxGeometry x="687" y="1266" width="29" height="29" as="geometry" />
        </mxCell>
        <mxCell id="A7s9LG4rhOwQnNxICcNo-70" value="G" style="ellipse;whiteSpace=wrap;html=1;aspect=fixed;" vertex="1" parent="1">
          <mxGeometry x="789" y="1108" width="29" height="29" as="geometry" />
        </mxCell>
        <mxCell id="A7s9LG4rhOwQnNxICcNo-71" value="" style="shape=table;html=1;whiteSpace=wrap;startSize=0;container=1;collapsible=0;childLayout=tableLayout;" vertex="1" parent="1">
          <mxGeometry x="657.5" y="1322" width="240" height="60" as="geometry" />
        </mxCell>
        <mxCell id="A7s9LG4rhOwQnNxICcNo-72" value="" style="shape=partialRectangle;html=1;whiteSpace=wrap;collapsible=0;dropTarget=0;pointerEvents=0;fillColor=none;top=0;left=0;bottom=0;right=0;points=[[0,0.5],[1,0.5]];portConstraint=eastwest;" vertex="1" parent="A7s9LG4rhOwQnNxICcNo-71">
          <mxGeometry width="240" height="30" as="geometry" />
        </mxCell>
        <mxCell id="A7s9LG4rhOwQnNxICcNo-73" style="shape=partialRectangle;html=1;whiteSpace=wrap;connectable=0;fillColor=none;top=0;left=0;bottom=0;right=0;overflow=hidden;" vertex="1" parent="A7s9LG4rhOwQnNxICcNo-72">
          <mxGeometry width="30" height="30" as="geometry" />
        </mxCell>
        <mxCell id="A7s9LG4rhOwQnNxICcNo-74" value="A" style="shape=partialRectangle;html=1;whiteSpace=wrap;connectable=0;fillColor=none;top=0;left=0;bottom=0;right=0;overflow=hidden;" vertex="1" parent="A7s9LG4rhOwQnNxICcNo-72">
          <mxGeometry x="30" width="30" height="30" as="geometry" />
        </mxCell>
        <mxCell id="A7s9LG4rhOwQnNxICcNo-75" value="B" style="shape=partialRectangle;html=1;whiteSpace=wrap;connectable=0;fillColor=none;top=0;left=0;bottom=0;right=0;overflow=hidden;" vertex="1" parent="A7s9LG4rhOwQnNxICcNo-72">
          <mxGeometry x="60" width="30" height="30" as="geometry" />
        </mxCell>
        <mxCell id="A7s9LG4rhOwQnNxICcNo-76" value="C" style="shape=partialRectangle;html=1;whiteSpace=wrap;connectable=0;fillColor=none;top=0;left=0;bottom=0;right=0;overflow=hidden;" vertex="1" parent="A7s9LG4rhOwQnNxICcNo-72">
          <mxGeometry x="90" width="30" height="30" as="geometry" />
        </mxCell>
        <mxCell id="A7s9LG4rhOwQnNxICcNo-77" value="D" style="shape=partialRectangle;html=1;whiteSpace=wrap;connectable=0;fillColor=none;top=0;left=0;bottom=0;right=0;overflow=hidden;" vertex="1" parent="A7s9LG4rhOwQnNxICcNo-72">
          <mxGeometry x="120" width="30" height="30" as="geometry" />
        </mxCell>
        <mxCell id="A7s9LG4rhOwQnNxICcNo-78" value="E" style="shape=partialRectangle;html=1;whiteSpace=wrap;connectable=0;fillColor=none;top=0;left=0;bottom=0;right=0;overflow=hidden;" vertex="1" parent="A7s9LG4rhOwQnNxICcNo-72">
          <mxGeometry x="150" width="30" height="30" as="geometry" />
        </mxCell>
        <mxCell id="A7s9LG4rhOwQnNxICcNo-79" value="F" style="shape=partialRectangle;html=1;whiteSpace=wrap;connectable=0;fillColor=none;top=0;left=0;bottom=0;right=0;overflow=hidden;" vertex="1" parent="A7s9LG4rhOwQnNxICcNo-72">
          <mxGeometry x="180" width="30" height="30" as="geometry" />
        </mxCell>
        <mxCell id="A7s9LG4rhOwQnNxICcNo-80" value="G" style="shape=partialRectangle;html=1;whiteSpace=wrap;connectable=0;fillColor=none;top=0;left=0;bottom=0;right=0;overflow=hidden;" vertex="1" parent="A7s9LG4rhOwQnNxICcNo-72">
          <mxGeometry x="210" width="30" height="30" as="geometry" />
        </mxCell>
        <mxCell id="A7s9LG4rhOwQnNxICcNo-81" value="" style="shape=partialRectangle;html=1;whiteSpace=wrap;collapsible=0;dropTarget=0;pointerEvents=0;fillColor=none;top=0;left=0;bottom=0;right=0;points=[[0,0.5],[1,0.5]];portConstraint=eastwest;" vertex="1" parent="A7s9LG4rhOwQnNxICcNo-71">
          <mxGeometry y="30" width="240" height="30" as="geometry" />
        </mxCell>
        <mxCell id="A7s9LG4rhOwQnNxICcNo-82" value="d" style="shape=partialRectangle;html=1;whiteSpace=wrap;connectable=0;fillColor=none;top=0;left=0;bottom=0;right=0;overflow=hidden;" vertex="1" parent="A7s9LG4rhOwQnNxICcNo-81">
          <mxGeometry width="30" height="30" as="geometry" />
        </mxCell>
        <mxCell id="A7s9LG4rhOwQnNxICcNo-83" value="0" style="shape=partialRectangle;html=1;whiteSpace=wrap;connectable=0;fillColor=none;top=0;left=0;bottom=0;right=0;overflow=hidden;" vertex="1" parent="A7s9LG4rhOwQnNxICcNo-81">
          <mxGeometry x="30" width="30" height="30" as="geometry" />
        </mxCell>
        <mxCell id="A7s9LG4rhOwQnNxICcNo-84" value="2" style="shape=partialRectangle;html=1;whiteSpace=wrap;connectable=0;fillColor=none;top=0;left=0;bottom=0;right=0;overflow=hidden;" vertex="1" parent="A7s9LG4rhOwQnNxICcNo-81">
          <mxGeometry x="60" width="30" height="30" as="geometry" />
        </mxCell>
        <mxCell id="A7s9LG4rhOwQnNxICcNo-85" value="10" style="shape=partialRectangle;html=1;whiteSpace=wrap;connectable=0;fillColor=none;top=0;left=0;bottom=0;right=0;overflow=hidden;" vertex="1" parent="A7s9LG4rhOwQnNxICcNo-81">
          <mxGeometry x="90" width="30" height="30" as="geometry" />
        </mxCell>
        <mxCell id="A7s9LG4rhOwQnNxICcNo-86" value="7" style="shape=partialRectangle;html=1;whiteSpace=wrap;connectable=0;fillColor=none;top=0;left=0;bottom=0;right=0;overflow=hidden;" vertex="1" parent="A7s9LG4rhOwQnNxICcNo-81">
          <mxGeometry x="120" width="30" height="30" as="geometry" />
        </mxCell>
        <mxCell id="A7s9LG4rhOwQnNxICcNo-87" value="3" style="shape=partialRectangle;html=1;whiteSpace=wrap;connectable=0;fillColor=none;top=0;left=0;bottom=0;right=0;overflow=hidden;" vertex="1" parent="A7s9LG4rhOwQnNxICcNo-81">
          <mxGeometry x="150" width="30" height="30" as="geometry" />
        </mxCell>
        <mxCell id="A7s9LG4rhOwQnNxICcNo-88" value="inf" style="shape=partialRectangle;html=1;whiteSpace=wrap;connectable=0;fillColor=none;top=0;left=0;bottom=0;right=0;overflow=hidden;" vertex="1" parent="A7s9LG4rhOwQnNxICcNo-81">
          <mxGeometry x="180" width="30" height="30" as="geometry" />
        </mxCell>
        <mxCell id="A7s9LG4rhOwQnNxICcNo-89" value="1" style="shape=partialRectangle;html=1;whiteSpace=wrap;connectable=0;fillColor=none;top=0;left=0;bottom=0;right=0;overflow=hidden;" vertex="1" parent="A7s9LG4rhOwQnNxICcNo-81">
          <mxGeometry x="210" width="30" height="30" as="geometry" />
        </mxCell>
        <mxCell id="A7s9LG4rhOwQnNxICcNo-90" value="" style="shape=flexArrow;endArrow=classic;html=1;" edge="1" parent="1">
          <mxGeometry width="50" height="50" relative="1" as="geometry">
            <mxPoint x="932.4999999999995" y="1207" as="sourcePoint" />
            <mxPoint x="1008.5" y="1207" as="targetPoint" />
          </mxGeometry>
        </mxCell>
        <mxCell id="A7s9LG4rhOwQnNxICcNo-91" style="edgeStyle=none;rounded=0;orthogonalLoop=1;jettySize=auto;html=1;exitX=1;exitY=0.5;exitDx=0;exitDy=0;endArrow=none;endFill=0;strokeWidth=3;" edge="1" parent="1" source="A7s9LG4rhOwQnNxICcNo-53" target="A7s9LG4rhOwQnNxICcNo-53">
          <mxGeometry relative="1" as="geometry" />
        </mxCell>
        <mxCell id="A7s9LG4rhOwQnNxICcNo-92" style="rounded=0;orthogonalLoop=1;jettySize=auto;html=1;endArrow=none;endFill=0;fillColor=#dae8fc;strokeColor=#6c8ebf;strokeWidth=3;" edge="1" parent="1" source="A7s9LG4rhOwQnNxICcNo-94" target="A7s9LG4rhOwQnNxICcNo-99">
          <mxGeometry relative="1" as="geometry">
            <mxPoint x="1133.5" y="1187" as="targetPoint" />
          </mxGeometry>
        </mxCell>
        <mxCell id="A7s9LG4rhOwQnNxICcNo-93" value="2" style="edgeLabel;html=1;align=center;verticalAlign=middle;resizable=0;points=[];" vertex="1" connectable="0" parent="A7s9LG4rhOwQnNxICcNo-92">
          <mxGeometry x="0.16" y="2" relative="1" as="geometry">
            <mxPoint x="-11" y="-8" as="offset" />
          </mxGeometry>
        </mxCell>
        <mxCell id="A7s9LG4rhOwQnNxICcNo-94" value="&lt;font style=&quot;font-size: 12px&quot;&gt;A&lt;/font&gt;" style="ellipse;whiteSpace=wrap;html=1;aspect=fixed;fillColor=#dae8fc;strokeColor=#6c8ebf;" vertex="1" parent="1">
          <mxGeometry x="1047.5" y="1201" width="29" height="29" as="geometry" />
        </mxCell>
        <mxCell id="A7s9LG4rhOwQnNxICcNo-95" value="" style="edgeStyle=none;rounded=0;orthogonalLoop=1;jettySize=auto;html=1;endArrow=none;endFill=0;fillColor=#d5e8d4;strokeColor=#82b366;strokeWidth=3;" edge="1" parent="1" source="A7s9LG4rhOwQnNxICcNo-99" target="A7s9LG4rhOwQnNxICcNo-102">
          <mxGeometry relative="1" as="geometry" />
        </mxCell>
        <mxCell id="A7s9LG4rhOwQnNxICcNo-96" value="3" style="edgeLabel;html=1;align=center;verticalAlign=middle;resizable=0;points=[];" vertex="1" connectable="0" parent="A7s9LG4rhOwQnNxICcNo-95">
          <mxGeometry x="0.1281" y="1" relative="1" as="geometry">
            <mxPoint x="3" y="-12" as="offset" />
          </mxGeometry>
        </mxCell>
        <mxCell id="A7s9LG4rhOwQnNxICcNo-97" value="" style="edgeStyle=none;rounded=0;orthogonalLoop=1;jettySize=auto;html=1;endArrow=none;endFill=0;fillColor=#dae8fc;strokeColor=#6c8ebf;strokeWidth=3;" edge="1" parent="1" source="A7s9LG4rhOwQnNxICcNo-99" target="A7s9LG4rhOwQnNxICcNo-116">
          <mxGeometry relative="1" as="geometry" />
        </mxCell>
        <mxCell id="A7s9LG4rhOwQnNxICcNo-98" value="1" style="edgeLabel;html=1;align=center;verticalAlign=middle;resizable=0;points=[];" vertex="1" connectable="0" parent="A7s9LG4rhOwQnNxICcNo-97">
          <mxGeometry x="-0.0103" y="1" relative="1" as="geometry">
            <mxPoint x="-8" y="-5" as="offset" />
          </mxGeometry>
        </mxCell>
        <mxCell id="A7s9LG4rhOwQnNxICcNo-99" value="B" style="ellipse;whiteSpace=wrap;html=1;aspect=fixed;fillColor=#dae8fc;strokeColor=#6c8ebf;" vertex="1" parent="1">
          <mxGeometry x="1126.5" y="1172" width="29" height="29" as="geometry" />
        </mxCell>
        <mxCell id="A7s9LG4rhOwQnNxICcNo-100" style="edgeStyle=none;rounded=0;orthogonalLoop=1;jettySize=auto;html=1;exitX=0.5;exitY=1;exitDx=0;exitDy=0;entryX=0.367;entryY=0.03;entryDx=0;entryDy=0;endArrow=none;endFill=0;entryPerimeter=0;" edge="1" parent="1" source="A7s9LG4rhOwQnNxICcNo-102" target="A7s9LG4rhOwQnNxICcNo-105">
          <mxGeometry relative="1" as="geometry" />
        </mxCell>
        <mxCell id="A7s9LG4rhOwQnNxICcNo-101" value="5" style="edgeLabel;html=1;align=center;verticalAlign=middle;resizable=0;points=[];" vertex="1" connectable="0" parent="A7s9LG4rhOwQnNxICcNo-100">
          <mxGeometry x="0.2637" relative="1" as="geometry">
            <mxPoint x="7" y="-6" as="offset" />
          </mxGeometry>
        </mxCell>
        <mxCell id="A7s9LG4rhOwQnNxICcNo-102" value="E" style="ellipse;whiteSpace=wrap;html=1;aspect=fixed;" vertex="1" parent="1">
          <mxGeometry x="1201.5" y="1183" width="29" height="29" as="geometry" />
        </mxCell>
        <mxCell id="A7s9LG4rhOwQnNxICcNo-103" value="" style="edgeStyle=none;rounded=0;orthogonalLoop=1;jettySize=auto;html=1;endArrow=none;endFill=0;" edge="1" parent="1" source="A7s9LG4rhOwQnNxICcNo-105" target="A7s9LG4rhOwQnNxICcNo-112">
          <mxGeometry relative="1" as="geometry" />
        </mxCell>
        <mxCell id="A7s9LG4rhOwQnNxICcNo-104" value="8" style="edgeLabel;html=1;align=center;verticalAlign=middle;resizable=0;points=[];" vertex="1" connectable="0" parent="A7s9LG4rhOwQnNxICcNo-103">
          <mxGeometry x="-0.1766" y="-1" relative="1" as="geometry">
            <mxPoint x="1" y="11" as="offset" />
          </mxGeometry>
        </mxCell>
        <mxCell id="A7s9LG4rhOwQnNxICcNo-105" value="F" style="ellipse;whiteSpace=wrap;html=1;aspect=fixed;" vertex="1" parent="1">
          <mxGeometry x="1216.5" y="1258" width="29" height="29" as="geometry" />
        </mxCell>
        <mxCell id="A7s9LG4rhOwQnNxICcNo-106" value="" style="edgeStyle=none;rounded=0;orthogonalLoop=1;jettySize=auto;html=1;endArrow=none;endFill=0;" edge="1" parent="1" source="A7s9LG4rhOwQnNxICcNo-112" target="A7s9LG4rhOwQnNxICcNo-115">
          <mxGeometry relative="1" as="geometry" />
        </mxCell>
        <mxCell id="A7s9LG4rhOwQnNxICcNo-107" value="5" style="edgeLabel;html=1;align=center;verticalAlign=middle;resizable=0;points=[];" vertex="1" connectable="0" parent="A7s9LG4rhOwQnNxICcNo-106">
          <mxGeometry x="-0.0423" y="-1" relative="1" as="geometry">
            <mxPoint x="-3" y="13" as="offset" />
          </mxGeometry>
        </mxCell>
        <mxCell id="A7s9LG4rhOwQnNxICcNo-108" value="" style="edgeStyle=none;rounded=0;orthogonalLoop=1;jettySize=auto;html=1;endArrow=none;endFill=0;entryX=0.5;entryY=1;entryDx=0;entryDy=0;fillColor=#d5e8d4;strokeColor=#82b366;strokeWidth=3;" edge="1" parent="1" source="A7s9LG4rhOwQnNxICcNo-112" target="A7s9LG4rhOwQnNxICcNo-99">
          <mxGeometry relative="1" as="geometry" />
        </mxCell>
        <mxCell id="A7s9LG4rhOwQnNxICcNo-109" value="7" style="edgeLabel;html=1;align=center;verticalAlign=middle;resizable=0;points=[];" vertex="1" connectable="0" parent="A7s9LG4rhOwQnNxICcNo-108">
          <mxGeometry x="0.0801" y="2" relative="1" as="geometry">
            <mxPoint x="-7" y="8" as="offset" />
          </mxGeometry>
        </mxCell>
        <mxCell id="A7s9LG4rhOwQnNxICcNo-110" value="" style="edgeStyle=none;rounded=0;orthogonalLoop=1;jettySize=auto;html=1;endArrow=none;endFill=0;" edge="1" parent="1" source="A7s9LG4rhOwQnNxICcNo-112" target="A7s9LG4rhOwQnNxICcNo-102">
          <mxGeometry relative="1" as="geometry" />
        </mxCell>
        <mxCell id="A7s9LG4rhOwQnNxICcNo-111" value="1" style="edgeLabel;html=1;align=center;verticalAlign=middle;resizable=0;points=[];" vertex="1" connectable="0" parent="A7s9LG4rhOwQnNxICcNo-110">
          <mxGeometry x="-0.0141" y="2" relative="1" as="geometry">
            <mxPoint x="-5" y="-9" as="offset" />
          </mxGeometry>
        </mxCell>
        <mxCell id="A7s9LG4rhOwQnNxICcNo-112" value="D" style="ellipse;whiteSpace=wrap;html=1;aspect=fixed;" vertex="1" parent="1">
          <mxGeometry x="1145.5" y="1264" width="29" height="29" as="geometry" />
        </mxCell>
        <mxCell id="A7s9LG4rhOwQnNxICcNo-113" value="" style="edgeStyle=none;rounded=0;orthogonalLoop=1;jettySize=auto;html=1;endArrow=none;endFill=0;fillColor=#d5e8d4;strokeColor=#82b366;strokeWidth=3;" edge="1" parent="1" source="A7s9LG4rhOwQnNxICcNo-115" target="A7s9LG4rhOwQnNxICcNo-94">
          <mxGeometry relative="1" as="geometry" />
        </mxCell>
        <mxCell id="A7s9LG4rhOwQnNxICcNo-114" value="10" style="edgeLabel;html=1;align=center;verticalAlign=middle;resizable=0;points=[];" vertex="1" connectable="0" parent="A7s9LG4rhOwQnNxICcNo-113">
          <mxGeometry x="-0.0233" y="1" relative="1" as="geometry">
            <mxPoint x="-12" y="3" as="offset" />
          </mxGeometry>
        </mxCell>
        <mxCell id="A7s9LG4rhOwQnNxICcNo-115" value="C" style="ellipse;whiteSpace=wrap;html=1;aspect=fixed;" vertex="1" parent="1">
          <mxGeometry x="1057.5" y="1266" width="29" height="29" as="geometry" />
        </mxCell>
        <mxCell id="A7s9LG4rhOwQnNxICcNo-116" value="G" style="ellipse;whiteSpace=wrap;html=1;aspect=fixed;fillColor=#dae8fc;strokeColor=#6c8ebf;" vertex="1" parent="1">
          <mxGeometry x="1159.5" y="1108" width="29" height="29" as="geometry" />
        </mxCell>
        <mxCell id="A7s9LG4rhOwQnNxICcNo-117" value="" style="shape=table;html=1;whiteSpace=wrap;startSize=0;container=1;collapsible=0;childLayout=tableLayout;" vertex="1" parent="1">
          <mxGeometry x="1028" y="1322" width="240" height="60" as="geometry" />
        </mxCell>
        <mxCell id="A7s9LG4rhOwQnNxICcNo-118" value="" style="shape=partialRectangle;html=1;whiteSpace=wrap;collapsible=0;dropTarget=0;pointerEvents=0;fillColor=none;top=0;left=0;bottom=0;right=0;points=[[0,0.5],[1,0.5]];portConstraint=eastwest;" vertex="1" parent="A7s9LG4rhOwQnNxICcNo-117">
          <mxGeometry width="240" height="30" as="geometry" />
        </mxCell>
        <mxCell id="A7s9LG4rhOwQnNxICcNo-119" style="shape=partialRectangle;html=1;whiteSpace=wrap;connectable=0;fillColor=none;top=0;left=0;bottom=0;right=0;overflow=hidden;" vertex="1" parent="A7s9LG4rhOwQnNxICcNo-118">
          <mxGeometry width="30" height="30" as="geometry" />
        </mxCell>
        <mxCell id="A7s9LG4rhOwQnNxICcNo-120" value="A" style="shape=partialRectangle;html=1;whiteSpace=wrap;connectable=0;fillColor=none;top=0;left=0;bottom=0;right=0;overflow=hidden;" vertex="1" parent="A7s9LG4rhOwQnNxICcNo-118">
          <mxGeometry x="30" width="30" height="30" as="geometry" />
        </mxCell>
        <mxCell id="A7s9LG4rhOwQnNxICcNo-121" value="B" style="shape=partialRectangle;html=1;whiteSpace=wrap;connectable=0;fillColor=none;top=0;left=0;bottom=0;right=0;overflow=hidden;" vertex="1" parent="A7s9LG4rhOwQnNxICcNo-118">
          <mxGeometry x="60" width="30" height="30" as="geometry" />
        </mxCell>
        <mxCell id="A7s9LG4rhOwQnNxICcNo-122" value="C" style="shape=partialRectangle;html=1;whiteSpace=wrap;connectable=0;fillColor=none;top=0;left=0;bottom=0;right=0;overflow=hidden;" vertex="1" parent="A7s9LG4rhOwQnNxICcNo-118">
          <mxGeometry x="90" width="30" height="30" as="geometry" />
        </mxCell>
        <mxCell id="A7s9LG4rhOwQnNxICcNo-123" value="D" style="shape=partialRectangle;html=1;whiteSpace=wrap;connectable=0;fillColor=none;top=0;left=0;bottom=0;right=0;overflow=hidden;" vertex="1" parent="A7s9LG4rhOwQnNxICcNo-118">
          <mxGeometry x="120" width="30" height="30" as="geometry" />
        </mxCell>
        <mxCell id="A7s9LG4rhOwQnNxICcNo-124" value="E" style="shape=partialRectangle;html=1;whiteSpace=wrap;connectable=0;fillColor=none;top=0;left=0;bottom=0;right=0;overflow=hidden;" vertex="1" parent="A7s9LG4rhOwQnNxICcNo-118">
          <mxGeometry x="150" width="30" height="30" as="geometry" />
        </mxCell>
        <mxCell id="A7s9LG4rhOwQnNxICcNo-125" value="F" style="shape=partialRectangle;html=1;whiteSpace=wrap;connectable=0;fillColor=none;top=0;left=0;bottom=0;right=0;overflow=hidden;" vertex="1" parent="A7s9LG4rhOwQnNxICcNo-118">
          <mxGeometry x="180" width="30" height="30" as="geometry" />
        </mxCell>
        <mxCell id="A7s9LG4rhOwQnNxICcNo-126" value="G" style="shape=partialRectangle;html=1;whiteSpace=wrap;connectable=0;fillColor=none;top=0;left=0;bottom=0;right=0;overflow=hidden;" vertex="1" parent="A7s9LG4rhOwQnNxICcNo-118">
          <mxGeometry x="210" width="30" height="30" as="geometry" />
        </mxCell>
        <mxCell id="A7s9LG4rhOwQnNxICcNo-127" value="" style="shape=partialRectangle;html=1;whiteSpace=wrap;collapsible=0;dropTarget=0;pointerEvents=0;fillColor=none;top=0;left=0;bottom=0;right=0;points=[[0,0.5],[1,0.5]];portConstraint=eastwest;" vertex="1" parent="A7s9LG4rhOwQnNxICcNo-117">
          <mxGeometry y="30" width="240" height="30" as="geometry" />
        </mxCell>
        <mxCell id="A7s9LG4rhOwQnNxICcNo-128" value="d" style="shape=partialRectangle;html=1;whiteSpace=wrap;connectable=0;fillColor=none;top=0;left=0;bottom=0;right=0;overflow=hidden;" vertex="1" parent="A7s9LG4rhOwQnNxICcNo-127">
          <mxGeometry width="30" height="30" as="geometry" />
        </mxCell>
        <mxCell id="A7s9LG4rhOwQnNxICcNo-129" value="0" style="shape=partialRectangle;html=1;whiteSpace=wrap;connectable=0;fillColor=none;top=0;left=0;bottom=0;right=0;overflow=hidden;" vertex="1" parent="A7s9LG4rhOwQnNxICcNo-127">
          <mxGeometry x="30" width="30" height="30" as="geometry" />
        </mxCell>
        <mxCell id="A7s9LG4rhOwQnNxICcNo-130" value="2" style="shape=partialRectangle;html=1;whiteSpace=wrap;connectable=0;fillColor=none;top=0;left=0;bottom=0;right=0;overflow=hidden;" vertex="1" parent="A7s9LG4rhOwQnNxICcNo-127">
          <mxGeometry x="60" width="30" height="30" as="geometry" />
        </mxCell>
        <mxCell id="A7s9LG4rhOwQnNxICcNo-131" value="10" style="shape=partialRectangle;html=1;whiteSpace=wrap;connectable=0;fillColor=none;top=0;left=0;bottom=0;right=0;overflow=hidden;" vertex="1" parent="A7s9LG4rhOwQnNxICcNo-127">
          <mxGeometry x="90" width="30" height="30" as="geometry" />
        </mxCell>
        <mxCell id="A7s9LG4rhOwQnNxICcNo-132" value="7" style="shape=partialRectangle;html=1;whiteSpace=wrap;connectable=0;fillColor=none;top=0;left=0;bottom=0;right=0;overflow=hidden;" vertex="1" parent="A7s9LG4rhOwQnNxICcNo-127">
          <mxGeometry x="120" width="30" height="30" as="geometry" />
        </mxCell>
        <mxCell id="A7s9LG4rhOwQnNxICcNo-133" value="3" style="shape=partialRectangle;html=1;whiteSpace=wrap;connectable=0;fillColor=none;top=0;left=0;bottom=0;right=0;overflow=hidden;" vertex="1" parent="A7s9LG4rhOwQnNxICcNo-127">
          <mxGeometry x="150" width="30" height="30" as="geometry" />
        </mxCell>
        <mxCell id="A7s9LG4rhOwQnNxICcNo-134" value="inf" style="shape=partialRectangle;html=1;whiteSpace=wrap;connectable=0;fillColor=none;top=0;left=0;bottom=0;right=0;overflow=hidden;" vertex="1" parent="A7s9LG4rhOwQnNxICcNo-127">
          <mxGeometry x="180" width="30" height="30" as="geometry" />
        </mxCell>
        <mxCell id="A7s9LG4rhOwQnNxICcNo-135" value="1" style="shape=partialRectangle;html=1;whiteSpace=wrap;connectable=0;fillColor=none;top=0;left=0;bottom=0;right=0;overflow=hidden;" vertex="1" parent="A7s9LG4rhOwQnNxICcNo-127">
          <mxGeometry x="210" width="30" height="30" as="geometry" />
        </mxCell>
        <mxCell id="A7s9LG4rhOwQnNxICcNo-136" style="edgeStyle=none;rounded=0;orthogonalLoop=1;jettySize=auto;html=1;exitX=1;exitY=0.5;exitDx=0;exitDy=0;endArrow=none;endFill=0;strokeWidth=3;" edge="1" parent="1" source="A7s9LG4rhOwQnNxICcNo-99" target="A7s9LG4rhOwQnNxICcNo-99">
          <mxGeometry relative="1" as="geometry" />
        </mxCell>
        <mxCell id="A7s9LG4rhOwQnNxICcNo-137" value="" style="shape=flexArrow;endArrow=classic;html=1;" edge="1" parent="1">
          <mxGeometry width="50" height="50" relative="1" as="geometry">
            <mxPoint x="1148.4999999999995" y="1414.9999999999998" as="sourcePoint" />
            <mxPoint x="1148" y="1489" as="targetPoint" />
          </mxGeometry>
        </mxCell>
        <mxCell id="A7s9LG4rhOwQnNxICcNo-138" style="rounded=0;orthogonalLoop=1;jettySize=auto;html=1;endArrow=none;endFill=0;fillColor=#dae8fc;strokeColor=#6c8ebf;strokeWidth=3;" edge="1" parent="1" source="A7s9LG4rhOwQnNxICcNo-140" target="A7s9LG4rhOwQnNxICcNo-145">
          <mxGeometry relative="1" as="geometry">
            <mxPoint x="1133.5" y="1603" as="targetPoint" />
          </mxGeometry>
        </mxCell>
        <mxCell id="A7s9LG4rhOwQnNxICcNo-139" value="2" style="edgeLabel;html=1;align=center;verticalAlign=middle;resizable=0;points=[];" vertex="1" connectable="0" parent="A7s9LG4rhOwQnNxICcNo-138">
          <mxGeometry x="0.16" y="2" relative="1" as="geometry">
            <mxPoint x="-11" y="-8" as="offset" />
          </mxGeometry>
        </mxCell>
        <mxCell id="A7s9LG4rhOwQnNxICcNo-140" value="&lt;font style=&quot;font-size: 12px&quot;&gt;A&lt;/font&gt;" style="ellipse;whiteSpace=wrap;html=1;aspect=fixed;fillColor=#dae8fc;strokeColor=#6c8ebf;" vertex="1" parent="1">
          <mxGeometry x="1047.5" y="1617" width="29" height="29" as="geometry" />
        </mxCell>
        <mxCell id="A7s9LG4rhOwQnNxICcNo-141" value="" style="edgeStyle=none;rounded=0;orthogonalLoop=1;jettySize=auto;html=1;endArrow=none;endFill=0;fillColor=#dae8fc;strokeColor=#6c8ebf;strokeWidth=3;" edge="1" parent="1" source="A7s9LG4rhOwQnNxICcNo-145" target="A7s9LG4rhOwQnNxICcNo-148">
          <mxGeometry relative="1" as="geometry" />
        </mxCell>
        <mxCell id="A7s9LG4rhOwQnNxICcNo-142" value="3" style="edgeLabel;html=1;align=center;verticalAlign=middle;resizable=0;points=[];" vertex="1" connectable="0" parent="A7s9LG4rhOwQnNxICcNo-141">
          <mxGeometry x="0.1281" y="1" relative="1" as="geometry">
            <mxPoint x="3" y="-12" as="offset" />
          </mxGeometry>
        </mxCell>
        <mxCell id="A7s9LG4rhOwQnNxICcNo-143" value="" style="edgeStyle=none;rounded=0;orthogonalLoop=1;jettySize=auto;html=1;endArrow=none;endFill=0;fillColor=#dae8fc;strokeColor=#6c8ebf;strokeWidth=3;" edge="1" parent="1" source="A7s9LG4rhOwQnNxICcNo-145" target="A7s9LG4rhOwQnNxICcNo-162">
          <mxGeometry relative="1" as="geometry" />
        </mxCell>
        <mxCell id="A7s9LG4rhOwQnNxICcNo-144" value="1" style="edgeLabel;html=1;align=center;verticalAlign=middle;resizable=0;points=[];" vertex="1" connectable="0" parent="A7s9LG4rhOwQnNxICcNo-143">
          <mxGeometry x="-0.0103" y="1" relative="1" as="geometry">
            <mxPoint x="-8" y="-5" as="offset" />
          </mxGeometry>
        </mxCell>
        <mxCell id="A7s9LG4rhOwQnNxICcNo-145" value="B" style="ellipse;whiteSpace=wrap;html=1;aspect=fixed;fillColor=#dae8fc;strokeColor=#6c8ebf;" vertex="1" parent="1">
          <mxGeometry x="1126.5" y="1588" width="29" height="29" as="geometry" />
        </mxCell>
        <mxCell id="A7s9LG4rhOwQnNxICcNo-146" style="edgeStyle=none;rounded=0;orthogonalLoop=1;jettySize=auto;html=1;exitX=0.5;exitY=1;exitDx=0;exitDy=0;entryX=0.367;entryY=0.03;entryDx=0;entryDy=0;endArrow=none;endFill=0;entryPerimeter=0;fillColor=#d5e8d4;strokeColor=#82b366;strokeWidth=3;" edge="1" parent="1" source="A7s9LG4rhOwQnNxICcNo-148" target="A7s9LG4rhOwQnNxICcNo-151">
          <mxGeometry relative="1" as="geometry" />
        </mxCell>
        <mxCell id="A7s9LG4rhOwQnNxICcNo-147" value="5" style="edgeLabel;html=1;align=center;verticalAlign=middle;resizable=0;points=[];" vertex="1" connectable="0" parent="A7s9LG4rhOwQnNxICcNo-146">
          <mxGeometry x="0.2637" relative="1" as="geometry">
            <mxPoint x="7" y="-6" as="offset" />
          </mxGeometry>
        </mxCell>
        <mxCell id="A7s9LG4rhOwQnNxICcNo-148" value="E" style="ellipse;whiteSpace=wrap;html=1;aspect=fixed;fillColor=#dae8fc;strokeColor=#6c8ebf;" vertex="1" parent="1">
          <mxGeometry x="1201.5" y="1599" width="29" height="29" as="geometry" />
        </mxCell>
        <mxCell id="A7s9LG4rhOwQnNxICcNo-149" value="" style="edgeStyle=none;rounded=0;orthogonalLoop=1;jettySize=auto;html=1;endArrow=none;endFill=0;" edge="1" parent="1" source="A7s9LG4rhOwQnNxICcNo-151" target="A7s9LG4rhOwQnNxICcNo-158">
          <mxGeometry relative="1" as="geometry" />
        </mxCell>
        <mxCell id="A7s9LG4rhOwQnNxICcNo-150" value="8" style="edgeLabel;html=1;align=center;verticalAlign=middle;resizable=0;points=[];" vertex="1" connectable="0" parent="A7s9LG4rhOwQnNxICcNo-149">
          <mxGeometry x="-0.1766" y="-1" relative="1" as="geometry">
            <mxPoint x="1" y="11" as="offset" />
          </mxGeometry>
        </mxCell>
        <mxCell id="A7s9LG4rhOwQnNxICcNo-151" value="F" style="ellipse;whiteSpace=wrap;html=1;aspect=fixed;" vertex="1" parent="1">
          <mxGeometry x="1216.5" y="1674" width="29" height="29" as="geometry" />
        </mxCell>
        <mxCell id="A7s9LG4rhOwQnNxICcNo-152" value="" style="edgeStyle=none;rounded=0;orthogonalLoop=1;jettySize=auto;html=1;endArrow=none;endFill=0;" edge="1" parent="1" source="A7s9LG4rhOwQnNxICcNo-158" target="A7s9LG4rhOwQnNxICcNo-161">
          <mxGeometry relative="1" as="geometry" />
        </mxCell>
        <mxCell id="A7s9LG4rhOwQnNxICcNo-153" value="5" style="edgeLabel;html=1;align=center;verticalAlign=middle;resizable=0;points=[];" vertex="1" connectable="0" parent="A7s9LG4rhOwQnNxICcNo-152">
          <mxGeometry x="-0.0423" y="-1" relative="1" as="geometry">
            <mxPoint x="-3" y="13" as="offset" />
          </mxGeometry>
        </mxCell>
        <mxCell id="A7s9LG4rhOwQnNxICcNo-154" value="" style="edgeStyle=none;rounded=0;orthogonalLoop=1;jettySize=auto;html=1;endArrow=none;endFill=0;entryX=0.5;entryY=1;entryDx=0;entryDy=0;fillColor=#d5e8d4;strokeColor=#82b366;strokeWidth=3;" edge="1" parent="1" source="A7s9LG4rhOwQnNxICcNo-158" target="A7s9LG4rhOwQnNxICcNo-145">
          <mxGeometry relative="1" as="geometry" />
        </mxCell>
        <mxCell id="A7s9LG4rhOwQnNxICcNo-155" value="7" style="edgeLabel;html=1;align=center;verticalAlign=middle;resizable=0;points=[];" vertex="1" connectable="0" parent="A7s9LG4rhOwQnNxICcNo-154">
          <mxGeometry x="0.0801" y="2" relative="1" as="geometry">
            <mxPoint x="-7" y="8" as="offset" />
          </mxGeometry>
        </mxCell>
        <mxCell id="A7s9LG4rhOwQnNxICcNo-156" value="" style="edgeStyle=none;rounded=0;orthogonalLoop=1;jettySize=auto;html=1;endArrow=none;endFill=0;fillColor=#d5e8d4;strokeColor=#82b366;strokeWidth=3;" edge="1" parent="1" source="A7s9LG4rhOwQnNxICcNo-158" target="A7s9LG4rhOwQnNxICcNo-148">
          <mxGeometry relative="1" as="geometry" />
        </mxCell>
        <mxCell id="A7s9LG4rhOwQnNxICcNo-157" value="1" style="edgeLabel;html=1;align=center;verticalAlign=middle;resizable=0;points=[];" vertex="1" connectable="0" parent="A7s9LG4rhOwQnNxICcNo-156">
          <mxGeometry x="-0.0141" y="2" relative="1" as="geometry">
            <mxPoint x="-5" y="-9" as="offset" />
          </mxGeometry>
        </mxCell>
        <mxCell id="A7s9LG4rhOwQnNxICcNo-158" value="D" style="ellipse;whiteSpace=wrap;html=1;aspect=fixed;" vertex="1" parent="1">
          <mxGeometry x="1145.5" y="1680" width="29" height="29" as="geometry" />
        </mxCell>
        <mxCell id="A7s9LG4rhOwQnNxICcNo-159" value="" style="edgeStyle=none;rounded=0;orthogonalLoop=1;jettySize=auto;html=1;endArrow=none;endFill=0;fillColor=#d5e8d4;strokeColor=#82b366;strokeWidth=3;" edge="1" parent="1" source="A7s9LG4rhOwQnNxICcNo-161" target="A7s9LG4rhOwQnNxICcNo-140">
          <mxGeometry relative="1" as="geometry" />
        </mxCell>
        <mxCell id="A7s9LG4rhOwQnNxICcNo-160" value="10" style="edgeLabel;html=1;align=center;verticalAlign=middle;resizable=0;points=[];" vertex="1" connectable="0" parent="A7s9LG4rhOwQnNxICcNo-159">
          <mxGeometry x="-0.0233" y="1" relative="1" as="geometry">
            <mxPoint x="-12" y="3" as="offset" />
          </mxGeometry>
        </mxCell>
        <mxCell id="A7s9LG4rhOwQnNxICcNo-161" value="C" style="ellipse;whiteSpace=wrap;html=1;aspect=fixed;" vertex="1" parent="1">
          <mxGeometry x="1057.5" y="1682" width="29" height="29" as="geometry" />
        </mxCell>
        <mxCell id="A7s9LG4rhOwQnNxICcNo-162" value="G" style="ellipse;whiteSpace=wrap;html=1;aspect=fixed;fillColor=#dae8fc;strokeColor=#6c8ebf;" vertex="1" parent="1">
          <mxGeometry x="1159.5" y="1524" width="29" height="29" as="geometry" />
        </mxCell>
        <mxCell id="A7s9LG4rhOwQnNxICcNo-163" value="" style="shape=table;html=1;whiteSpace=wrap;startSize=0;container=1;collapsible=0;childLayout=tableLayout;" vertex="1" parent="1">
          <mxGeometry x="1028" y="1738" width="240" height="60" as="geometry" />
        </mxCell>
        <mxCell id="A7s9LG4rhOwQnNxICcNo-164" value="" style="shape=partialRectangle;html=1;whiteSpace=wrap;collapsible=0;dropTarget=0;pointerEvents=0;fillColor=none;top=0;left=0;bottom=0;right=0;points=[[0,0.5],[1,0.5]];portConstraint=eastwest;" vertex="1" parent="A7s9LG4rhOwQnNxICcNo-163">
          <mxGeometry width="240" height="30" as="geometry" />
        </mxCell>
        <mxCell id="A7s9LG4rhOwQnNxICcNo-165" style="shape=partialRectangle;html=1;whiteSpace=wrap;connectable=0;fillColor=none;top=0;left=0;bottom=0;right=0;overflow=hidden;" vertex="1" parent="A7s9LG4rhOwQnNxICcNo-164">
          <mxGeometry width="30" height="30" as="geometry" />
        </mxCell>
        <mxCell id="A7s9LG4rhOwQnNxICcNo-166" value="A" style="shape=partialRectangle;html=1;whiteSpace=wrap;connectable=0;fillColor=none;top=0;left=0;bottom=0;right=0;overflow=hidden;" vertex="1" parent="A7s9LG4rhOwQnNxICcNo-164">
          <mxGeometry x="30" width="30" height="30" as="geometry" />
        </mxCell>
        <mxCell id="A7s9LG4rhOwQnNxICcNo-167" value="B" style="shape=partialRectangle;html=1;whiteSpace=wrap;connectable=0;fillColor=none;top=0;left=0;bottom=0;right=0;overflow=hidden;" vertex="1" parent="A7s9LG4rhOwQnNxICcNo-164">
          <mxGeometry x="60" width="30" height="30" as="geometry" />
        </mxCell>
        <mxCell id="A7s9LG4rhOwQnNxICcNo-168" value="C" style="shape=partialRectangle;html=1;whiteSpace=wrap;connectable=0;fillColor=none;top=0;left=0;bottom=0;right=0;overflow=hidden;" vertex="1" parent="A7s9LG4rhOwQnNxICcNo-164">
          <mxGeometry x="90" width="30" height="30" as="geometry" />
        </mxCell>
        <mxCell id="A7s9LG4rhOwQnNxICcNo-169" value="D" style="shape=partialRectangle;html=1;whiteSpace=wrap;connectable=0;fillColor=none;top=0;left=0;bottom=0;right=0;overflow=hidden;" vertex="1" parent="A7s9LG4rhOwQnNxICcNo-164">
          <mxGeometry x="120" width="30" height="30" as="geometry" />
        </mxCell>
        <mxCell id="A7s9LG4rhOwQnNxICcNo-170" value="E" style="shape=partialRectangle;html=1;whiteSpace=wrap;connectable=0;fillColor=none;top=0;left=0;bottom=0;right=0;overflow=hidden;" vertex="1" parent="A7s9LG4rhOwQnNxICcNo-164">
          <mxGeometry x="150" width="30" height="30" as="geometry" />
        </mxCell>
        <mxCell id="A7s9LG4rhOwQnNxICcNo-171" value="F" style="shape=partialRectangle;html=1;whiteSpace=wrap;connectable=0;fillColor=none;top=0;left=0;bottom=0;right=0;overflow=hidden;" vertex="1" parent="A7s9LG4rhOwQnNxICcNo-164">
          <mxGeometry x="180" width="30" height="30" as="geometry" />
        </mxCell>
        <mxCell id="A7s9LG4rhOwQnNxICcNo-172" value="G" style="shape=partialRectangle;html=1;whiteSpace=wrap;connectable=0;fillColor=none;top=0;left=0;bottom=0;right=0;overflow=hidden;" vertex="1" parent="A7s9LG4rhOwQnNxICcNo-164">
          <mxGeometry x="210" width="30" height="30" as="geometry" />
        </mxCell>
        <mxCell id="A7s9LG4rhOwQnNxICcNo-173" value="" style="shape=partialRectangle;html=1;whiteSpace=wrap;collapsible=0;dropTarget=0;pointerEvents=0;fillColor=none;top=0;left=0;bottom=0;right=0;points=[[0,0.5],[1,0.5]];portConstraint=eastwest;" vertex="1" parent="A7s9LG4rhOwQnNxICcNo-163">
          <mxGeometry y="30" width="240" height="30" as="geometry" />
        </mxCell>
        <mxCell id="A7s9LG4rhOwQnNxICcNo-174" value="d" style="shape=partialRectangle;html=1;whiteSpace=wrap;connectable=0;fillColor=none;top=0;left=0;bottom=0;right=0;overflow=hidden;" vertex="1" parent="A7s9LG4rhOwQnNxICcNo-173">
          <mxGeometry width="30" height="30" as="geometry" />
        </mxCell>
        <mxCell id="A7s9LG4rhOwQnNxICcNo-175" value="0" style="shape=partialRectangle;html=1;whiteSpace=wrap;connectable=0;fillColor=none;top=0;left=0;bottom=0;right=0;overflow=hidden;" vertex="1" parent="A7s9LG4rhOwQnNxICcNo-173">
          <mxGeometry x="30" width="30" height="30" as="geometry" />
        </mxCell>
        <mxCell id="A7s9LG4rhOwQnNxICcNo-176" value="2" style="shape=partialRectangle;html=1;whiteSpace=wrap;connectable=0;fillColor=none;top=0;left=0;bottom=0;right=0;overflow=hidden;" vertex="1" parent="A7s9LG4rhOwQnNxICcNo-173">
          <mxGeometry x="60" width="30" height="30" as="geometry" />
        </mxCell>
        <mxCell id="A7s9LG4rhOwQnNxICcNo-177" value="10" style="shape=partialRectangle;html=1;whiteSpace=wrap;connectable=0;fillColor=none;top=0;left=0;bottom=0;right=0;overflow=hidden;" vertex="1" parent="A7s9LG4rhOwQnNxICcNo-173">
          <mxGeometry x="90" width="30" height="30" as="geometry" />
        </mxCell>
        <mxCell id="A7s9LG4rhOwQnNxICcNo-178" value="1" style="shape=partialRectangle;html=1;whiteSpace=wrap;connectable=0;fillColor=none;top=0;left=0;bottom=0;right=0;overflow=hidden;" vertex="1" parent="A7s9LG4rhOwQnNxICcNo-173">
          <mxGeometry x="120" width="30" height="30" as="geometry" />
        </mxCell>
        <mxCell id="A7s9LG4rhOwQnNxICcNo-179" value="3" style="shape=partialRectangle;html=1;whiteSpace=wrap;connectable=0;fillColor=none;top=0;left=0;bottom=0;right=0;overflow=hidden;" vertex="1" parent="A7s9LG4rhOwQnNxICcNo-173">
          <mxGeometry x="150" width="30" height="30" as="geometry" />
        </mxCell>
        <mxCell id="A7s9LG4rhOwQnNxICcNo-180" value="5" style="shape=partialRectangle;html=1;whiteSpace=wrap;connectable=0;fillColor=none;top=0;left=0;bottom=0;right=0;overflow=hidden;" vertex="1" parent="A7s9LG4rhOwQnNxICcNo-173">
          <mxGeometry x="180" width="30" height="30" as="geometry" />
        </mxCell>
        <mxCell id="A7s9LG4rhOwQnNxICcNo-181" value="1" style="shape=partialRectangle;html=1;whiteSpace=wrap;connectable=0;fillColor=none;top=0;left=0;bottom=0;right=0;overflow=hidden;" vertex="1" parent="A7s9LG4rhOwQnNxICcNo-173">
          <mxGeometry x="210" width="30" height="30" as="geometry" />
        </mxCell>
        <mxCell id="A7s9LG4rhOwQnNxICcNo-182" style="edgeStyle=none;rounded=0;orthogonalLoop=1;jettySize=auto;html=1;exitX=1;exitY=0.5;exitDx=0;exitDy=0;endArrow=none;endFill=0;strokeWidth=3;" edge="1" parent="1" source="A7s9LG4rhOwQnNxICcNo-145" target="A7s9LG4rhOwQnNxICcNo-145">
          <mxGeometry relative="1" as="geometry" />
        </mxCell>
        <mxCell id="A7s9LG4rhOwQnNxICcNo-183" style="rounded=0;orthogonalLoop=1;jettySize=auto;html=1;endArrow=none;endFill=0;fillColor=#dae8fc;strokeColor=#6c8ebf;strokeWidth=3;" edge="1" parent="1" source="A7s9LG4rhOwQnNxICcNo-185" target="A7s9LG4rhOwQnNxICcNo-190">
          <mxGeometry relative="1" as="geometry">
            <mxPoint x="756" y="1603" as="targetPoint" />
          </mxGeometry>
        </mxCell>
        <mxCell id="A7s9LG4rhOwQnNxICcNo-184" value="2" style="edgeLabel;html=1;align=center;verticalAlign=middle;resizable=0;points=[];" vertex="1" connectable="0" parent="A7s9LG4rhOwQnNxICcNo-183">
          <mxGeometry x="0.16" y="2" relative="1" as="geometry">
            <mxPoint x="-11" y="-8" as="offset" />
          </mxGeometry>
        </mxCell>
        <mxCell id="A7s9LG4rhOwQnNxICcNo-185" value="&lt;font style=&quot;font-size: 12px&quot;&gt;A&lt;/font&gt;" style="ellipse;whiteSpace=wrap;html=1;aspect=fixed;fillColor=#dae8fc;strokeColor=#6c8ebf;" vertex="1" parent="1">
          <mxGeometry x="670" y="1617" width="29" height="29" as="geometry" />
        </mxCell>
        <mxCell id="A7s9LG4rhOwQnNxICcNo-186" value="" style="edgeStyle=none;rounded=0;orthogonalLoop=1;jettySize=auto;html=1;endArrow=none;endFill=0;fillColor=#dae8fc;strokeColor=#6c8ebf;strokeWidth=3;" edge="1" parent="1" source="A7s9LG4rhOwQnNxICcNo-190" target="A7s9LG4rhOwQnNxICcNo-193">
          <mxGeometry relative="1" as="geometry" />
        </mxCell>
        <mxCell id="A7s9LG4rhOwQnNxICcNo-187" value="3" style="edgeLabel;html=1;align=center;verticalAlign=middle;resizable=0;points=[];" vertex="1" connectable="0" parent="A7s9LG4rhOwQnNxICcNo-186">
          <mxGeometry x="0.1281" y="1" relative="1" as="geometry">
            <mxPoint x="3" y="-12" as="offset" />
          </mxGeometry>
        </mxCell>
        <mxCell id="A7s9LG4rhOwQnNxICcNo-188" value="" style="edgeStyle=none;rounded=0;orthogonalLoop=1;jettySize=auto;html=1;endArrow=none;endFill=0;fillColor=#dae8fc;strokeColor=#6c8ebf;strokeWidth=3;" edge="1" parent="1" source="A7s9LG4rhOwQnNxICcNo-190" target="A7s9LG4rhOwQnNxICcNo-207">
          <mxGeometry relative="1" as="geometry" />
        </mxCell>
        <mxCell id="A7s9LG4rhOwQnNxICcNo-189" value="1" style="edgeLabel;html=1;align=center;verticalAlign=middle;resizable=0;points=[];" vertex="1" connectable="0" parent="A7s9LG4rhOwQnNxICcNo-188">
          <mxGeometry x="-0.0103" y="1" relative="1" as="geometry">
            <mxPoint x="-8" y="-5" as="offset" />
          </mxGeometry>
        </mxCell>
        <mxCell id="A7s9LG4rhOwQnNxICcNo-190" value="B" style="ellipse;whiteSpace=wrap;html=1;aspect=fixed;fillColor=#dae8fc;strokeColor=#6c8ebf;" vertex="1" parent="1">
          <mxGeometry x="749" y="1588" width="29" height="29" as="geometry" />
        </mxCell>
        <mxCell id="A7s9LG4rhOwQnNxICcNo-191" style="edgeStyle=none;rounded=0;orthogonalLoop=1;jettySize=auto;html=1;exitX=0.5;exitY=1;exitDx=0;exitDy=0;entryX=0.367;entryY=0.03;entryDx=0;entryDy=0;endArrow=none;endFill=0;entryPerimeter=0;fillColor=#d5e8d4;strokeColor=#82b366;strokeWidth=3;" edge="1" parent="1" source="A7s9LG4rhOwQnNxICcNo-193" target="A7s9LG4rhOwQnNxICcNo-196">
          <mxGeometry relative="1" as="geometry" />
        </mxCell>
        <mxCell id="A7s9LG4rhOwQnNxICcNo-192" value="5" style="edgeLabel;html=1;align=center;verticalAlign=middle;resizable=0;points=[];" vertex="1" connectable="0" parent="A7s9LG4rhOwQnNxICcNo-191">
          <mxGeometry x="0.2637" relative="1" as="geometry">
            <mxPoint x="7" y="-6" as="offset" />
          </mxGeometry>
        </mxCell>
        <mxCell id="A7s9LG4rhOwQnNxICcNo-193" value="E" style="ellipse;whiteSpace=wrap;html=1;aspect=fixed;fillColor=#dae8fc;strokeColor=#6c8ebf;" vertex="1" parent="1">
          <mxGeometry x="824" y="1599" width="29" height="29" as="geometry" />
        </mxCell>
        <mxCell id="A7s9LG4rhOwQnNxICcNo-194" value="" style="edgeStyle=none;rounded=0;orthogonalLoop=1;jettySize=auto;html=1;endArrow=none;endFill=0;fillColor=#d5e8d4;strokeColor=#82b366;strokeWidth=3;" edge="1" parent="1" source="A7s9LG4rhOwQnNxICcNo-196" target="A7s9LG4rhOwQnNxICcNo-203">
          <mxGeometry relative="1" as="geometry" />
        </mxCell>
        <mxCell id="A7s9LG4rhOwQnNxICcNo-195" value="8" style="edgeLabel;html=1;align=center;verticalAlign=middle;resizable=0;points=[];" vertex="1" connectable="0" parent="A7s9LG4rhOwQnNxICcNo-194">
          <mxGeometry x="-0.1766" y="-1" relative="1" as="geometry">
            <mxPoint x="1" y="11" as="offset" />
          </mxGeometry>
        </mxCell>
        <mxCell id="A7s9LG4rhOwQnNxICcNo-196" value="F" style="ellipse;whiteSpace=wrap;html=1;aspect=fixed;" vertex="1" parent="1">
          <mxGeometry x="839" y="1674" width="29" height="29" as="geometry" />
        </mxCell>
        <mxCell id="A7s9LG4rhOwQnNxICcNo-197" value="" style="edgeStyle=none;rounded=0;orthogonalLoop=1;jettySize=auto;html=1;endArrow=none;endFill=0;fillColor=#d5e8d4;strokeColor=#82b366;strokeWidth=3;" edge="1" parent="1" source="A7s9LG4rhOwQnNxICcNo-203" target="A7s9LG4rhOwQnNxICcNo-206">
          <mxGeometry relative="1" as="geometry" />
        </mxCell>
        <mxCell id="A7s9LG4rhOwQnNxICcNo-198" value="5" style="edgeLabel;html=1;align=center;verticalAlign=middle;resizable=0;points=[];" vertex="1" connectable="0" parent="A7s9LG4rhOwQnNxICcNo-197">
          <mxGeometry x="-0.0423" y="-1" relative="1" as="geometry">
            <mxPoint x="-3" y="13" as="offset" />
          </mxGeometry>
        </mxCell>
        <mxCell id="A7s9LG4rhOwQnNxICcNo-199" value="" style="edgeStyle=none;rounded=0;orthogonalLoop=1;jettySize=auto;html=1;endArrow=none;endFill=0;entryX=0.5;entryY=1;entryDx=0;entryDy=0;fillColor=#d5e8d4;strokeColor=#82b366;strokeWidth=3;" edge="1" parent="1" source="A7s9LG4rhOwQnNxICcNo-203" target="A7s9LG4rhOwQnNxICcNo-190">
          <mxGeometry relative="1" as="geometry" />
        </mxCell>
        <mxCell id="A7s9LG4rhOwQnNxICcNo-200" value="7" style="edgeLabel;html=1;align=center;verticalAlign=middle;resizable=0;points=[];" vertex="1" connectable="0" parent="A7s9LG4rhOwQnNxICcNo-199">
          <mxGeometry x="0.0801" y="2" relative="1" as="geometry">
            <mxPoint x="-7" y="8" as="offset" />
          </mxGeometry>
        </mxCell>
        <mxCell id="A7s9LG4rhOwQnNxICcNo-201" value="" style="edgeStyle=none;rounded=0;orthogonalLoop=1;jettySize=auto;html=1;endArrow=none;endFill=0;fillColor=#dae8fc;strokeColor=#6c8ebf;strokeWidth=3;" edge="1" parent="1" source="A7s9LG4rhOwQnNxICcNo-203" target="A7s9LG4rhOwQnNxICcNo-193">
          <mxGeometry relative="1" as="geometry" />
        </mxCell>
        <mxCell id="A7s9LG4rhOwQnNxICcNo-202" value="1" style="edgeLabel;html=1;align=center;verticalAlign=middle;resizable=0;points=[];" vertex="1" connectable="0" parent="A7s9LG4rhOwQnNxICcNo-201">
          <mxGeometry x="-0.0141" y="2" relative="1" as="geometry">
            <mxPoint x="-5" y="-9" as="offset" />
          </mxGeometry>
        </mxCell>
        <mxCell id="A7s9LG4rhOwQnNxICcNo-203" value="D" style="ellipse;whiteSpace=wrap;html=1;aspect=fixed;fillColor=#dae8fc;strokeColor=#6c8ebf;" vertex="1" parent="1">
          <mxGeometry x="768" y="1680" width="29" height="29" as="geometry" />
        </mxCell>
        <mxCell id="A7s9LG4rhOwQnNxICcNo-204" value="" style="edgeStyle=none;rounded=0;orthogonalLoop=1;jettySize=auto;html=1;endArrow=none;endFill=0;fillColor=#d5e8d4;strokeColor=#82b366;strokeWidth=3;" edge="1" parent="1" source="A7s9LG4rhOwQnNxICcNo-206" target="A7s9LG4rhOwQnNxICcNo-185">
          <mxGeometry relative="1" as="geometry" />
        </mxCell>
        <mxCell id="A7s9LG4rhOwQnNxICcNo-205" value="10" style="edgeLabel;html=1;align=center;verticalAlign=middle;resizable=0;points=[];" vertex="1" connectable="0" parent="A7s9LG4rhOwQnNxICcNo-204">
          <mxGeometry x="-0.0233" y="1" relative="1" as="geometry">
            <mxPoint x="-12" y="3" as="offset" />
          </mxGeometry>
        </mxCell>
        <mxCell id="A7s9LG4rhOwQnNxICcNo-206" value="C" style="ellipse;whiteSpace=wrap;html=1;aspect=fixed;" vertex="1" parent="1">
          <mxGeometry x="680" y="1682" width="29" height="29" as="geometry" />
        </mxCell>
        <mxCell id="A7s9LG4rhOwQnNxICcNo-207" value="G" style="ellipse;whiteSpace=wrap;html=1;aspect=fixed;fillColor=#dae8fc;strokeColor=#6c8ebf;" vertex="1" parent="1">
          <mxGeometry x="782" y="1524" width="29" height="29" as="geometry" />
        </mxCell>
        <mxCell id="A7s9LG4rhOwQnNxICcNo-208" value="" style="shape=table;html=1;whiteSpace=wrap;startSize=0;container=1;collapsible=0;childLayout=tableLayout;" vertex="1" parent="1">
          <mxGeometry x="650.5" y="1738" width="240" height="60" as="geometry" />
        </mxCell>
        <mxCell id="A7s9LG4rhOwQnNxICcNo-209" value="" style="shape=partialRectangle;html=1;whiteSpace=wrap;collapsible=0;dropTarget=0;pointerEvents=0;fillColor=none;top=0;left=0;bottom=0;right=0;points=[[0,0.5],[1,0.5]];portConstraint=eastwest;" vertex="1" parent="A7s9LG4rhOwQnNxICcNo-208">
          <mxGeometry width="240" height="30" as="geometry" />
        </mxCell>
        <mxCell id="A7s9LG4rhOwQnNxICcNo-210" style="shape=partialRectangle;html=1;whiteSpace=wrap;connectable=0;fillColor=none;top=0;left=0;bottom=0;right=0;overflow=hidden;" vertex="1" parent="A7s9LG4rhOwQnNxICcNo-209">
          <mxGeometry width="30" height="30" as="geometry" />
        </mxCell>
        <mxCell id="A7s9LG4rhOwQnNxICcNo-211" value="A" style="shape=partialRectangle;html=1;whiteSpace=wrap;connectable=0;fillColor=none;top=0;left=0;bottom=0;right=0;overflow=hidden;" vertex="1" parent="A7s9LG4rhOwQnNxICcNo-209">
          <mxGeometry x="30" width="30" height="30" as="geometry" />
        </mxCell>
        <mxCell id="A7s9LG4rhOwQnNxICcNo-212" value="B" style="shape=partialRectangle;html=1;whiteSpace=wrap;connectable=0;fillColor=none;top=0;left=0;bottom=0;right=0;overflow=hidden;" vertex="1" parent="A7s9LG4rhOwQnNxICcNo-209">
          <mxGeometry x="60" width="30" height="30" as="geometry" />
        </mxCell>
        <mxCell id="A7s9LG4rhOwQnNxICcNo-213" value="C" style="shape=partialRectangle;html=1;whiteSpace=wrap;connectable=0;fillColor=none;top=0;left=0;bottom=0;right=0;overflow=hidden;" vertex="1" parent="A7s9LG4rhOwQnNxICcNo-209">
          <mxGeometry x="90" width="30" height="30" as="geometry" />
        </mxCell>
        <mxCell id="A7s9LG4rhOwQnNxICcNo-214" value="D" style="shape=partialRectangle;html=1;whiteSpace=wrap;connectable=0;fillColor=none;top=0;left=0;bottom=0;right=0;overflow=hidden;" vertex="1" parent="A7s9LG4rhOwQnNxICcNo-209">
          <mxGeometry x="120" width="30" height="30" as="geometry" />
        </mxCell>
        <mxCell id="A7s9LG4rhOwQnNxICcNo-215" value="E" style="shape=partialRectangle;html=1;whiteSpace=wrap;connectable=0;fillColor=none;top=0;left=0;bottom=0;right=0;overflow=hidden;" vertex="1" parent="A7s9LG4rhOwQnNxICcNo-209">
          <mxGeometry x="150" width="30" height="30" as="geometry" />
        </mxCell>
        <mxCell id="A7s9LG4rhOwQnNxICcNo-216" value="F" style="shape=partialRectangle;html=1;whiteSpace=wrap;connectable=0;fillColor=none;top=0;left=0;bottom=0;right=0;overflow=hidden;" vertex="1" parent="A7s9LG4rhOwQnNxICcNo-209">
          <mxGeometry x="180" width="30" height="30" as="geometry" />
        </mxCell>
        <mxCell id="A7s9LG4rhOwQnNxICcNo-217" value="G" style="shape=partialRectangle;html=1;whiteSpace=wrap;connectable=0;fillColor=none;top=0;left=0;bottom=0;right=0;overflow=hidden;" vertex="1" parent="A7s9LG4rhOwQnNxICcNo-209">
          <mxGeometry x="210" width="30" height="30" as="geometry" />
        </mxCell>
        <mxCell id="A7s9LG4rhOwQnNxICcNo-218" value="" style="shape=partialRectangle;html=1;whiteSpace=wrap;collapsible=0;dropTarget=0;pointerEvents=0;fillColor=none;top=0;left=0;bottom=0;right=0;points=[[0,0.5],[1,0.5]];portConstraint=eastwest;" vertex="1" parent="A7s9LG4rhOwQnNxICcNo-208">
          <mxGeometry y="30" width="240" height="30" as="geometry" />
        </mxCell>
        <mxCell id="A7s9LG4rhOwQnNxICcNo-219" value="d" style="shape=partialRectangle;html=1;whiteSpace=wrap;connectable=0;fillColor=none;top=0;left=0;bottom=0;right=0;overflow=hidden;" vertex="1" parent="A7s9LG4rhOwQnNxICcNo-218">
          <mxGeometry width="30" height="30" as="geometry" />
        </mxCell>
        <mxCell id="A7s9LG4rhOwQnNxICcNo-220" value="0" style="shape=partialRectangle;html=1;whiteSpace=wrap;connectable=0;fillColor=none;top=0;left=0;bottom=0;right=0;overflow=hidden;" vertex="1" parent="A7s9LG4rhOwQnNxICcNo-218">
          <mxGeometry x="30" width="30" height="30" as="geometry" />
        </mxCell>
        <mxCell id="A7s9LG4rhOwQnNxICcNo-221" value="2" style="shape=partialRectangle;html=1;whiteSpace=wrap;connectable=0;fillColor=none;top=0;left=0;bottom=0;right=0;overflow=hidden;" vertex="1" parent="A7s9LG4rhOwQnNxICcNo-218">
          <mxGeometry x="60" width="30" height="30" as="geometry" />
        </mxCell>
        <mxCell id="A7s9LG4rhOwQnNxICcNo-222" value="5" style="shape=partialRectangle;html=1;whiteSpace=wrap;connectable=0;fillColor=none;top=0;left=0;bottom=0;right=0;overflow=hidden;" vertex="1" parent="A7s9LG4rhOwQnNxICcNo-218">
          <mxGeometry x="90" width="30" height="30" as="geometry" />
        </mxCell>
        <mxCell id="A7s9LG4rhOwQnNxICcNo-223" value="1" style="shape=partialRectangle;html=1;whiteSpace=wrap;connectable=0;fillColor=none;top=0;left=0;bottom=0;right=0;overflow=hidden;" vertex="1" parent="A7s9LG4rhOwQnNxICcNo-218">
          <mxGeometry x="120" width="30" height="30" as="geometry" />
        </mxCell>
        <mxCell id="A7s9LG4rhOwQnNxICcNo-224" value="3" style="shape=partialRectangle;html=1;whiteSpace=wrap;connectable=0;fillColor=none;top=0;left=0;bottom=0;right=0;overflow=hidden;" vertex="1" parent="A7s9LG4rhOwQnNxICcNo-218">
          <mxGeometry x="150" width="30" height="30" as="geometry" />
        </mxCell>
        <mxCell id="A7s9LG4rhOwQnNxICcNo-225" value="5" style="shape=partialRectangle;html=1;whiteSpace=wrap;connectable=0;fillColor=none;top=0;left=0;bottom=0;right=0;overflow=hidden;" vertex="1" parent="A7s9LG4rhOwQnNxICcNo-218">
          <mxGeometry x="180" width="30" height="30" as="geometry" />
        </mxCell>
        <mxCell id="A7s9LG4rhOwQnNxICcNo-226" value="1" style="shape=partialRectangle;html=1;whiteSpace=wrap;connectable=0;fillColor=none;top=0;left=0;bottom=0;right=0;overflow=hidden;" vertex="1" parent="A7s9LG4rhOwQnNxICcNo-218">
          <mxGeometry x="210" width="30" height="30" as="geometry" />
        </mxCell>
        <mxCell id="A7s9LG4rhOwQnNxICcNo-227" style="edgeStyle=none;rounded=0;orthogonalLoop=1;jettySize=auto;html=1;exitX=1;exitY=0.5;exitDx=0;exitDy=0;endArrow=none;endFill=0;strokeWidth=3;" edge="1" parent="1" source="A7s9LG4rhOwQnNxICcNo-190" target="A7s9LG4rhOwQnNxICcNo-190">
          <mxGeometry relative="1" as="geometry" />
        </mxCell>
        <mxCell id="A7s9LG4rhOwQnNxICcNo-228" value="" style="shape=flexArrow;endArrow=classic;html=1;" edge="1" parent="1">
          <mxGeometry width="50" height="50" relative="1" as="geometry">
            <mxPoint x="1000" y="1621" as="sourcePoint" />
            <mxPoint x="926" y="1621" as="targetPoint" />
          </mxGeometry>
        </mxCell>
        <mxCell id="A7s9LG4rhOwQnNxICcNo-229" style="rounded=0;orthogonalLoop=1;jettySize=auto;html=1;endArrow=none;endFill=0;fillColor=#dae8fc;strokeColor=#6c8ebf;strokeWidth=3;" edge="1" parent="1" source="A7s9LG4rhOwQnNxICcNo-231" target="A7s9LG4rhOwQnNxICcNo-236">
          <mxGeometry relative="1" as="geometry">
            <mxPoint x="373" y="1603" as="targetPoint" />
          </mxGeometry>
        </mxCell>
        <mxCell id="A7s9LG4rhOwQnNxICcNo-230" value="2" style="edgeLabel;html=1;align=center;verticalAlign=middle;resizable=0;points=[];" vertex="1" connectable="0" parent="A7s9LG4rhOwQnNxICcNo-229">
          <mxGeometry x="0.16" y="2" relative="1" as="geometry">
            <mxPoint x="-11" y="-8" as="offset" />
          </mxGeometry>
        </mxCell>
        <mxCell id="A7s9LG4rhOwQnNxICcNo-231" value="&lt;font style=&quot;font-size: 12px&quot;&gt;A&lt;/font&gt;" style="ellipse;whiteSpace=wrap;html=1;aspect=fixed;fillColor=#dae8fc;strokeColor=#6c8ebf;" vertex="1" parent="1">
          <mxGeometry x="287" y="1617" width="29" height="29" as="geometry" />
        </mxCell>
        <mxCell id="A7s9LG4rhOwQnNxICcNo-232" value="" style="edgeStyle=none;rounded=0;orthogonalLoop=1;jettySize=auto;html=1;endArrow=none;endFill=0;fillColor=#dae8fc;strokeColor=#6c8ebf;strokeWidth=3;" edge="1" parent="1" source="A7s9LG4rhOwQnNxICcNo-236" target="A7s9LG4rhOwQnNxICcNo-239">
          <mxGeometry relative="1" as="geometry" />
        </mxCell>
        <mxCell id="A7s9LG4rhOwQnNxICcNo-233" value="3" style="edgeLabel;html=1;align=center;verticalAlign=middle;resizable=0;points=[];" vertex="1" connectable="0" parent="A7s9LG4rhOwQnNxICcNo-232">
          <mxGeometry x="0.1281" y="1" relative="1" as="geometry">
            <mxPoint x="3" y="-12" as="offset" />
          </mxGeometry>
        </mxCell>
        <mxCell id="A7s9LG4rhOwQnNxICcNo-234" value="" style="edgeStyle=none;rounded=0;orthogonalLoop=1;jettySize=auto;html=1;endArrow=none;endFill=0;fillColor=#dae8fc;strokeColor=#6c8ebf;strokeWidth=3;" edge="1" parent="1" source="A7s9LG4rhOwQnNxICcNo-236" target="A7s9LG4rhOwQnNxICcNo-253">
          <mxGeometry relative="1" as="geometry" />
        </mxCell>
        <mxCell id="A7s9LG4rhOwQnNxICcNo-235" value="1" style="edgeLabel;html=1;align=center;verticalAlign=middle;resizable=0;points=[];" vertex="1" connectable="0" parent="A7s9LG4rhOwQnNxICcNo-234">
          <mxGeometry x="-0.0103" y="1" relative="1" as="geometry">
            <mxPoint x="-8" y="-5" as="offset" />
          </mxGeometry>
        </mxCell>
        <mxCell id="A7s9LG4rhOwQnNxICcNo-236" value="B" style="ellipse;whiteSpace=wrap;html=1;aspect=fixed;fillColor=#dae8fc;strokeColor=#6c8ebf;" vertex="1" parent="1">
          <mxGeometry x="366" y="1588" width="29" height="29" as="geometry" />
        </mxCell>
        <mxCell id="A7s9LG4rhOwQnNxICcNo-237" style="edgeStyle=none;rounded=0;orthogonalLoop=1;jettySize=auto;html=1;exitX=0.5;exitY=1;exitDx=0;exitDy=0;entryX=0.367;entryY=0.03;entryDx=0;entryDy=0;endArrow=none;endFill=0;entryPerimeter=0;fillColor=#dae8fc;strokeColor=#6c8ebf;strokeWidth=3;" edge="1" parent="1" source="A7s9LG4rhOwQnNxICcNo-239" target="A7s9LG4rhOwQnNxICcNo-242">
          <mxGeometry relative="1" as="geometry" />
        </mxCell>
        <mxCell id="A7s9LG4rhOwQnNxICcNo-238" value="5" style="edgeLabel;html=1;align=center;verticalAlign=middle;resizable=0;points=[];" vertex="1" connectable="0" parent="A7s9LG4rhOwQnNxICcNo-237">
          <mxGeometry x="0.2637" relative="1" as="geometry">
            <mxPoint x="7" y="-6" as="offset" />
          </mxGeometry>
        </mxCell>
        <mxCell id="A7s9LG4rhOwQnNxICcNo-239" value="E" style="ellipse;whiteSpace=wrap;html=1;aspect=fixed;fillColor=#dae8fc;strokeColor=#6c8ebf;" vertex="1" parent="1">
          <mxGeometry x="441" y="1599" width="29" height="29" as="geometry" />
        </mxCell>
        <mxCell id="A7s9LG4rhOwQnNxICcNo-240" value="" style="edgeStyle=none;rounded=0;orthogonalLoop=1;jettySize=auto;html=1;endArrow=none;endFill=0;fillColor=#d5e8d4;strokeColor=#82b366;strokeWidth=3;" edge="1" parent="1" source="A7s9LG4rhOwQnNxICcNo-242" target="A7s9LG4rhOwQnNxICcNo-249">
          <mxGeometry relative="1" as="geometry" />
        </mxCell>
        <mxCell id="A7s9LG4rhOwQnNxICcNo-241" value="8" style="edgeLabel;html=1;align=center;verticalAlign=middle;resizable=0;points=[];" vertex="1" connectable="0" parent="A7s9LG4rhOwQnNxICcNo-240">
          <mxGeometry x="-0.1766" y="-1" relative="1" as="geometry">
            <mxPoint x="1" y="11" as="offset" />
          </mxGeometry>
        </mxCell>
        <mxCell id="A7s9LG4rhOwQnNxICcNo-242" value="F" style="ellipse;whiteSpace=wrap;html=1;aspect=fixed;fillColor=#dae8fc;strokeColor=#6c8ebf;" vertex="1" parent="1">
          <mxGeometry x="456" y="1674" width="29" height="29" as="geometry" />
        </mxCell>
        <mxCell id="A7s9LG4rhOwQnNxICcNo-243" value="" style="edgeStyle=none;rounded=0;orthogonalLoop=1;jettySize=auto;html=1;endArrow=none;endFill=0;fillColor=#d5e8d4;strokeColor=#82b366;strokeWidth=3;" edge="1" parent="1" source="A7s9LG4rhOwQnNxICcNo-249" target="A7s9LG4rhOwQnNxICcNo-252">
          <mxGeometry relative="1" as="geometry" />
        </mxCell>
        <mxCell id="A7s9LG4rhOwQnNxICcNo-244" value="5" style="edgeLabel;html=1;align=center;verticalAlign=middle;resizable=0;points=[];" vertex="1" connectable="0" parent="A7s9LG4rhOwQnNxICcNo-243">
          <mxGeometry x="-0.0423" y="-1" relative="1" as="geometry">
            <mxPoint x="-3" y="13" as="offset" />
          </mxGeometry>
        </mxCell>
        <mxCell id="A7s9LG4rhOwQnNxICcNo-245" value="" style="edgeStyle=none;rounded=0;orthogonalLoop=1;jettySize=auto;html=1;endArrow=none;endFill=0;entryX=0.5;entryY=1;entryDx=0;entryDy=0;fillColor=#d5e8d4;strokeColor=#82b366;strokeWidth=3;" edge="1" parent="1" source="A7s9LG4rhOwQnNxICcNo-249" target="A7s9LG4rhOwQnNxICcNo-236">
          <mxGeometry relative="1" as="geometry" />
        </mxCell>
        <mxCell id="A7s9LG4rhOwQnNxICcNo-246" value="7" style="edgeLabel;html=1;align=center;verticalAlign=middle;resizable=0;points=[];" vertex="1" connectable="0" parent="A7s9LG4rhOwQnNxICcNo-245">
          <mxGeometry x="0.0801" y="2" relative="1" as="geometry">
            <mxPoint x="-7" y="8" as="offset" />
          </mxGeometry>
        </mxCell>
        <mxCell id="A7s9LG4rhOwQnNxICcNo-247" value="" style="edgeStyle=none;rounded=0;orthogonalLoop=1;jettySize=auto;html=1;endArrow=none;endFill=0;fillColor=#dae8fc;strokeColor=#6c8ebf;strokeWidth=3;" edge="1" parent="1" source="A7s9LG4rhOwQnNxICcNo-249" target="A7s9LG4rhOwQnNxICcNo-239">
          <mxGeometry relative="1" as="geometry" />
        </mxCell>
        <mxCell id="A7s9LG4rhOwQnNxICcNo-248" value="1" style="edgeLabel;html=1;align=center;verticalAlign=middle;resizable=0;points=[];" vertex="1" connectable="0" parent="A7s9LG4rhOwQnNxICcNo-247">
          <mxGeometry x="-0.0141" y="2" relative="1" as="geometry">
            <mxPoint x="-5" y="-9" as="offset" />
          </mxGeometry>
        </mxCell>
        <mxCell id="A7s9LG4rhOwQnNxICcNo-249" value="D" style="ellipse;whiteSpace=wrap;html=1;aspect=fixed;fillColor=#dae8fc;strokeColor=#6c8ebf;" vertex="1" parent="1">
          <mxGeometry x="385" y="1680" width="29" height="29" as="geometry" />
        </mxCell>
        <mxCell id="A7s9LG4rhOwQnNxICcNo-250" value="" style="edgeStyle=none;rounded=0;orthogonalLoop=1;jettySize=auto;html=1;endArrow=none;endFill=0;fillColor=#d5e8d4;strokeColor=#82b366;strokeWidth=3;" edge="1" parent="1" source="A7s9LG4rhOwQnNxICcNo-252" target="A7s9LG4rhOwQnNxICcNo-231">
          <mxGeometry relative="1" as="geometry" />
        </mxCell>
        <mxCell id="A7s9LG4rhOwQnNxICcNo-251" value="10" style="edgeLabel;html=1;align=center;verticalAlign=middle;resizable=0;points=[];" vertex="1" connectable="0" parent="A7s9LG4rhOwQnNxICcNo-250">
          <mxGeometry x="-0.0233" y="1" relative="1" as="geometry">
            <mxPoint x="-12" y="3" as="offset" />
          </mxGeometry>
        </mxCell>
        <mxCell id="A7s9LG4rhOwQnNxICcNo-252" value="C" style="ellipse;whiteSpace=wrap;html=1;aspect=fixed;" vertex="1" parent="1">
          <mxGeometry x="297" y="1682" width="29" height="29" as="geometry" />
        </mxCell>
        <mxCell id="A7s9LG4rhOwQnNxICcNo-253" value="G" style="ellipse;whiteSpace=wrap;html=1;aspect=fixed;fillColor=#dae8fc;strokeColor=#6c8ebf;" vertex="1" parent="1">
          <mxGeometry x="399" y="1524" width="29" height="29" as="geometry" />
        </mxCell>
        <mxCell id="A7s9LG4rhOwQnNxICcNo-254" value="" style="shape=table;html=1;whiteSpace=wrap;startSize=0;container=1;collapsible=0;childLayout=tableLayout;" vertex="1" parent="1">
          <mxGeometry x="267.5" y="1738" width="240" height="60" as="geometry" />
        </mxCell>
        <mxCell id="A7s9LG4rhOwQnNxICcNo-255" value="" style="shape=partialRectangle;html=1;whiteSpace=wrap;collapsible=0;dropTarget=0;pointerEvents=0;fillColor=none;top=0;left=0;bottom=0;right=0;points=[[0,0.5],[1,0.5]];portConstraint=eastwest;" vertex="1" parent="A7s9LG4rhOwQnNxICcNo-254">
          <mxGeometry width="240" height="30" as="geometry" />
        </mxCell>
        <mxCell id="A7s9LG4rhOwQnNxICcNo-256" style="shape=partialRectangle;html=1;whiteSpace=wrap;connectable=0;fillColor=none;top=0;left=0;bottom=0;right=0;overflow=hidden;" vertex="1" parent="A7s9LG4rhOwQnNxICcNo-255">
          <mxGeometry width="30" height="30" as="geometry" />
        </mxCell>
        <mxCell id="A7s9LG4rhOwQnNxICcNo-257" value="A" style="shape=partialRectangle;html=1;whiteSpace=wrap;connectable=0;fillColor=none;top=0;left=0;bottom=0;right=0;overflow=hidden;" vertex="1" parent="A7s9LG4rhOwQnNxICcNo-255">
          <mxGeometry x="30" width="30" height="30" as="geometry" />
        </mxCell>
        <mxCell id="A7s9LG4rhOwQnNxICcNo-258" value="B" style="shape=partialRectangle;html=1;whiteSpace=wrap;connectable=0;fillColor=none;top=0;left=0;bottom=0;right=0;overflow=hidden;" vertex="1" parent="A7s9LG4rhOwQnNxICcNo-255">
          <mxGeometry x="60" width="30" height="30" as="geometry" />
        </mxCell>
        <mxCell id="A7s9LG4rhOwQnNxICcNo-259" value="C" style="shape=partialRectangle;html=1;whiteSpace=wrap;connectable=0;fillColor=none;top=0;left=0;bottom=0;right=0;overflow=hidden;" vertex="1" parent="A7s9LG4rhOwQnNxICcNo-255">
          <mxGeometry x="90" width="30" height="30" as="geometry" />
        </mxCell>
        <mxCell id="A7s9LG4rhOwQnNxICcNo-260" value="D" style="shape=partialRectangle;html=1;whiteSpace=wrap;connectable=0;fillColor=none;top=0;left=0;bottom=0;right=0;overflow=hidden;" vertex="1" parent="A7s9LG4rhOwQnNxICcNo-255">
          <mxGeometry x="120" width="30" height="30" as="geometry" />
        </mxCell>
        <mxCell id="A7s9LG4rhOwQnNxICcNo-261" value="E" style="shape=partialRectangle;html=1;whiteSpace=wrap;connectable=0;fillColor=none;top=0;left=0;bottom=0;right=0;overflow=hidden;" vertex="1" parent="A7s9LG4rhOwQnNxICcNo-255">
          <mxGeometry x="150" width="30" height="30" as="geometry" />
        </mxCell>
        <mxCell id="A7s9LG4rhOwQnNxICcNo-262" value="F" style="shape=partialRectangle;html=1;whiteSpace=wrap;connectable=0;fillColor=none;top=0;left=0;bottom=0;right=0;overflow=hidden;" vertex="1" parent="A7s9LG4rhOwQnNxICcNo-255">
          <mxGeometry x="180" width="30" height="30" as="geometry" />
        </mxCell>
        <mxCell id="A7s9LG4rhOwQnNxICcNo-263" value="G" style="shape=partialRectangle;html=1;whiteSpace=wrap;connectable=0;fillColor=none;top=0;left=0;bottom=0;right=0;overflow=hidden;" vertex="1" parent="A7s9LG4rhOwQnNxICcNo-255">
          <mxGeometry x="210" width="30" height="30" as="geometry" />
        </mxCell>
        <mxCell id="A7s9LG4rhOwQnNxICcNo-264" value="" style="shape=partialRectangle;html=1;whiteSpace=wrap;collapsible=0;dropTarget=0;pointerEvents=0;fillColor=none;top=0;left=0;bottom=0;right=0;points=[[0,0.5],[1,0.5]];portConstraint=eastwest;" vertex="1" parent="A7s9LG4rhOwQnNxICcNo-254">
          <mxGeometry y="30" width="240" height="30" as="geometry" />
        </mxCell>
        <mxCell id="A7s9LG4rhOwQnNxICcNo-265" value="d" style="shape=partialRectangle;html=1;whiteSpace=wrap;connectable=0;fillColor=none;top=0;left=0;bottom=0;right=0;overflow=hidden;" vertex="1" parent="A7s9LG4rhOwQnNxICcNo-264">
          <mxGeometry width="30" height="30" as="geometry" />
        </mxCell>
        <mxCell id="A7s9LG4rhOwQnNxICcNo-266" value="0" style="shape=partialRectangle;html=1;whiteSpace=wrap;connectable=0;fillColor=none;top=0;left=0;bottom=0;right=0;overflow=hidden;" vertex="1" parent="A7s9LG4rhOwQnNxICcNo-264">
          <mxGeometry x="30" width="30" height="30" as="geometry" />
        </mxCell>
        <mxCell id="A7s9LG4rhOwQnNxICcNo-267" value="2" style="shape=partialRectangle;html=1;whiteSpace=wrap;connectable=0;fillColor=none;top=0;left=0;bottom=0;right=0;overflow=hidden;" vertex="1" parent="A7s9LG4rhOwQnNxICcNo-264">
          <mxGeometry x="60" width="30" height="30" as="geometry" />
        </mxCell>
        <mxCell id="A7s9LG4rhOwQnNxICcNo-268" value="5" style="shape=partialRectangle;html=1;whiteSpace=wrap;connectable=0;fillColor=none;top=0;left=0;bottom=0;right=0;overflow=hidden;" vertex="1" parent="A7s9LG4rhOwQnNxICcNo-264">
          <mxGeometry x="90" width="30" height="30" as="geometry" />
        </mxCell>
        <mxCell id="A7s9LG4rhOwQnNxICcNo-269" value="1" style="shape=partialRectangle;html=1;whiteSpace=wrap;connectable=0;fillColor=none;top=0;left=0;bottom=0;right=0;overflow=hidden;" vertex="1" parent="A7s9LG4rhOwQnNxICcNo-264">
          <mxGeometry x="120" width="30" height="30" as="geometry" />
        </mxCell>
        <mxCell id="A7s9LG4rhOwQnNxICcNo-270" value="3" style="shape=partialRectangle;html=1;whiteSpace=wrap;connectable=0;fillColor=none;top=0;left=0;bottom=0;right=0;overflow=hidden;" vertex="1" parent="A7s9LG4rhOwQnNxICcNo-264">
          <mxGeometry x="150" width="30" height="30" as="geometry" />
        </mxCell>
        <mxCell id="A7s9LG4rhOwQnNxICcNo-271" value="5" style="shape=partialRectangle;html=1;whiteSpace=wrap;connectable=0;fillColor=none;top=0;left=0;bottom=0;right=0;overflow=hidden;" vertex="1" parent="A7s9LG4rhOwQnNxICcNo-264">
          <mxGeometry x="180" width="30" height="30" as="geometry" />
        </mxCell>
        <mxCell id="A7s9LG4rhOwQnNxICcNo-272" value="1" style="shape=partialRectangle;html=1;whiteSpace=wrap;connectable=0;fillColor=none;top=0;left=0;bottom=0;right=0;overflow=hidden;" vertex="1" parent="A7s9LG4rhOwQnNxICcNo-264">
          <mxGeometry x="210" width="30" height="30" as="geometry" />
        </mxCell>
        <mxCell id="A7s9LG4rhOwQnNxICcNo-273" style="edgeStyle=none;rounded=0;orthogonalLoop=1;jettySize=auto;html=1;exitX=1;exitY=0.5;exitDx=0;exitDy=0;endArrow=none;endFill=0;strokeWidth=3;" edge="1" parent="1" source="A7s9LG4rhOwQnNxICcNo-236" target="A7s9LG4rhOwQnNxICcNo-236">
          <mxGeometry relative="1" as="geometry" />
        </mxCell>
        <mxCell id="A7s9LG4rhOwQnNxICcNo-274" value="" style="shape=flexArrow;endArrow=classic;html=1;" edge="1" parent="1">
          <mxGeometry width="50" height="50" relative="1" as="geometry">
            <mxPoint x="617.0000000000002" y="1621" as="sourcePoint" />
            <mxPoint x="543" y="1621" as="targetPoint" />
          </mxGeometry>
        </mxCell>
        <mxCell id="A7s9LG4rhOwQnNxICcNo-275" style="rounded=0;orthogonalLoop=1;jettySize=auto;html=1;endArrow=none;endFill=0;fillColor=#dae8fc;strokeColor=#6c8ebf;strokeWidth=3;" edge="1" parent="1" source="A7s9LG4rhOwQnNxICcNo-277" target="A7s9LG4rhOwQnNxICcNo-282">
          <mxGeometry relative="1" as="geometry">
            <mxPoint x="373" y="1969" as="targetPoint" />
          </mxGeometry>
        </mxCell>
        <mxCell id="A7s9LG4rhOwQnNxICcNo-276" value="2" style="edgeLabel;html=1;align=center;verticalAlign=middle;resizable=0;points=[];" vertex="1" connectable="0" parent="A7s9LG4rhOwQnNxICcNo-275">
          <mxGeometry x="0.16" y="2" relative="1" as="geometry">
            <mxPoint x="-11" y="-8" as="offset" />
          </mxGeometry>
        </mxCell>
        <mxCell id="A7s9LG4rhOwQnNxICcNo-277" value="&lt;font style=&quot;font-size: 12px&quot;&gt;A&lt;/font&gt;" style="ellipse;whiteSpace=wrap;html=1;aspect=fixed;fillColor=#dae8fc;strokeColor=#6c8ebf;" vertex="1" parent="1">
          <mxGeometry x="287" y="1983" width="29" height="29" as="geometry" />
        </mxCell>
        <mxCell id="A7s9LG4rhOwQnNxICcNo-278" value="" style="edgeStyle=none;rounded=0;orthogonalLoop=1;jettySize=auto;html=1;endArrow=none;endFill=0;fillColor=#dae8fc;strokeColor=#6c8ebf;strokeWidth=3;" edge="1" parent="1" source="A7s9LG4rhOwQnNxICcNo-282" target="A7s9LG4rhOwQnNxICcNo-285">
          <mxGeometry relative="1" as="geometry" />
        </mxCell>
        <mxCell id="A7s9LG4rhOwQnNxICcNo-279" value="3" style="edgeLabel;html=1;align=center;verticalAlign=middle;resizable=0;points=[];" vertex="1" connectable="0" parent="A7s9LG4rhOwQnNxICcNo-278">
          <mxGeometry x="0.1281" y="1" relative="1" as="geometry">
            <mxPoint x="3" y="-12" as="offset" />
          </mxGeometry>
        </mxCell>
        <mxCell id="A7s9LG4rhOwQnNxICcNo-280" value="" style="edgeStyle=none;rounded=0;orthogonalLoop=1;jettySize=auto;html=1;endArrow=none;endFill=0;fillColor=#dae8fc;strokeColor=#6c8ebf;strokeWidth=3;" edge="1" parent="1" source="A7s9LG4rhOwQnNxICcNo-282" target="A7s9LG4rhOwQnNxICcNo-299">
          <mxGeometry relative="1" as="geometry" />
        </mxCell>
        <mxCell id="A7s9LG4rhOwQnNxICcNo-281" value="1" style="edgeLabel;html=1;align=center;verticalAlign=middle;resizable=0;points=[];" vertex="1" connectable="0" parent="A7s9LG4rhOwQnNxICcNo-280">
          <mxGeometry x="-0.0103" y="1" relative="1" as="geometry">
            <mxPoint x="-8" y="-5" as="offset" />
          </mxGeometry>
        </mxCell>
        <mxCell id="A7s9LG4rhOwQnNxICcNo-282" value="B" style="ellipse;whiteSpace=wrap;html=1;aspect=fixed;fillColor=#dae8fc;strokeColor=#6c8ebf;" vertex="1" parent="1">
          <mxGeometry x="366" y="1954" width="29" height="29" as="geometry" />
        </mxCell>
        <mxCell id="A7s9LG4rhOwQnNxICcNo-283" style="edgeStyle=none;rounded=0;orthogonalLoop=1;jettySize=auto;html=1;exitX=0.5;exitY=1;exitDx=0;exitDy=0;entryX=0.367;entryY=0.03;entryDx=0;entryDy=0;endArrow=none;endFill=0;entryPerimeter=0;fillColor=#dae8fc;strokeColor=#6c8ebf;strokeWidth=3;" edge="1" parent="1" source="A7s9LG4rhOwQnNxICcNo-285" target="A7s9LG4rhOwQnNxICcNo-288">
          <mxGeometry relative="1" as="geometry" />
        </mxCell>
        <mxCell id="A7s9LG4rhOwQnNxICcNo-284" value="5" style="edgeLabel;html=1;align=center;verticalAlign=middle;resizable=0;points=[];" vertex="1" connectable="0" parent="A7s9LG4rhOwQnNxICcNo-283">
          <mxGeometry x="0.2637" relative="1" as="geometry">
            <mxPoint x="7" y="-6" as="offset" />
          </mxGeometry>
        </mxCell>
        <mxCell id="A7s9LG4rhOwQnNxICcNo-285" value="E" style="ellipse;whiteSpace=wrap;html=1;aspect=fixed;fillColor=#dae8fc;strokeColor=#6c8ebf;" vertex="1" parent="1">
          <mxGeometry x="441" y="1965" width="29" height="29" as="geometry" />
        </mxCell>
        <mxCell id="A7s9LG4rhOwQnNxICcNo-286" value="" style="edgeStyle=none;rounded=0;orthogonalLoop=1;jettySize=auto;html=1;endArrow=none;endFill=0;fillColor=#d5e8d4;strokeColor=#82b366;strokeWidth=3;" edge="1" parent="1" source="A7s9LG4rhOwQnNxICcNo-288" target="A7s9LG4rhOwQnNxICcNo-295">
          <mxGeometry relative="1" as="geometry" />
        </mxCell>
        <mxCell id="A7s9LG4rhOwQnNxICcNo-287" value="8" style="edgeLabel;html=1;align=center;verticalAlign=middle;resizable=0;points=[];" vertex="1" connectable="0" parent="A7s9LG4rhOwQnNxICcNo-286">
          <mxGeometry x="-0.1766" y="-1" relative="1" as="geometry">
            <mxPoint x="1" y="11" as="offset" />
          </mxGeometry>
        </mxCell>
        <mxCell id="A7s9LG4rhOwQnNxICcNo-288" value="F" style="ellipse;whiteSpace=wrap;html=1;aspect=fixed;fillColor=#dae8fc;strokeColor=#6c8ebf;" vertex="1" parent="1">
          <mxGeometry x="456" y="2040" width="29" height="29" as="geometry" />
        </mxCell>
        <mxCell id="A7s9LG4rhOwQnNxICcNo-289" value="" style="edgeStyle=none;rounded=0;orthogonalLoop=1;jettySize=auto;html=1;endArrow=none;endFill=0;fillColor=#dae8fc;strokeColor=#6c8ebf;strokeWidth=3;" edge="1" parent="1" source="A7s9LG4rhOwQnNxICcNo-295" target="A7s9LG4rhOwQnNxICcNo-298">
          <mxGeometry relative="1" as="geometry" />
        </mxCell>
        <mxCell id="A7s9LG4rhOwQnNxICcNo-290" value="5" style="edgeLabel;html=1;align=center;verticalAlign=middle;resizable=0;points=[];" vertex="1" connectable="0" parent="A7s9LG4rhOwQnNxICcNo-289">
          <mxGeometry x="-0.0423" y="-1" relative="1" as="geometry">
            <mxPoint x="-3" y="13" as="offset" />
          </mxGeometry>
        </mxCell>
        <mxCell id="A7s9LG4rhOwQnNxICcNo-291" value="" style="edgeStyle=none;rounded=0;orthogonalLoop=1;jettySize=auto;html=1;endArrow=none;endFill=0;entryX=0.5;entryY=1;entryDx=0;entryDy=0;fillColor=#d5e8d4;strokeColor=#82b366;strokeWidth=3;" edge="1" parent="1" source="A7s9LG4rhOwQnNxICcNo-295" target="A7s9LG4rhOwQnNxICcNo-282">
          <mxGeometry relative="1" as="geometry" />
        </mxCell>
        <mxCell id="A7s9LG4rhOwQnNxICcNo-292" value="7" style="edgeLabel;html=1;align=center;verticalAlign=middle;resizable=0;points=[];" vertex="1" connectable="0" parent="A7s9LG4rhOwQnNxICcNo-291">
          <mxGeometry x="0.0801" y="2" relative="1" as="geometry">
            <mxPoint x="-7" y="8" as="offset" />
          </mxGeometry>
        </mxCell>
        <mxCell id="A7s9LG4rhOwQnNxICcNo-293" value="" style="edgeStyle=none;rounded=0;orthogonalLoop=1;jettySize=auto;html=1;endArrow=none;endFill=0;fillColor=#dae8fc;strokeColor=#6c8ebf;strokeWidth=3;" edge="1" parent="1" source="A7s9LG4rhOwQnNxICcNo-295" target="A7s9LG4rhOwQnNxICcNo-285">
          <mxGeometry relative="1" as="geometry" />
        </mxCell>
        <mxCell id="A7s9LG4rhOwQnNxICcNo-294" value="1" style="edgeLabel;html=1;align=center;verticalAlign=middle;resizable=0;points=[];" vertex="1" connectable="0" parent="A7s9LG4rhOwQnNxICcNo-293">
          <mxGeometry x="-0.0141" y="2" relative="1" as="geometry">
            <mxPoint x="-5" y="-9" as="offset" />
          </mxGeometry>
        </mxCell>
        <mxCell id="A7s9LG4rhOwQnNxICcNo-295" value="D" style="ellipse;whiteSpace=wrap;html=1;aspect=fixed;fillColor=#dae8fc;strokeColor=#6c8ebf;" vertex="1" parent="1">
          <mxGeometry x="385" y="2046" width="29" height="29" as="geometry" />
        </mxCell>
        <mxCell id="A7s9LG4rhOwQnNxICcNo-296" value="" style="edgeStyle=none;rounded=0;orthogonalLoop=1;jettySize=auto;html=1;endArrow=none;endFill=0;fillColor=#d5e8d4;strokeColor=#82b366;strokeWidth=3;" edge="1" parent="1" source="A7s9LG4rhOwQnNxICcNo-298" target="A7s9LG4rhOwQnNxICcNo-277">
          <mxGeometry relative="1" as="geometry" />
        </mxCell>
        <mxCell id="A7s9LG4rhOwQnNxICcNo-297" value="10" style="edgeLabel;html=1;align=center;verticalAlign=middle;resizable=0;points=[];" vertex="1" connectable="0" parent="A7s9LG4rhOwQnNxICcNo-296">
          <mxGeometry x="-0.0233" y="1" relative="1" as="geometry">
            <mxPoint x="-12" y="3" as="offset" />
          </mxGeometry>
        </mxCell>
        <mxCell id="A7s9LG4rhOwQnNxICcNo-298" value="C" style="ellipse;whiteSpace=wrap;html=1;aspect=fixed;fillColor=#dae8fc;strokeColor=#6c8ebf;" vertex="1" parent="1">
          <mxGeometry x="297" y="2048" width="29" height="29" as="geometry" />
        </mxCell>
        <mxCell id="A7s9LG4rhOwQnNxICcNo-299" value="G" style="ellipse;whiteSpace=wrap;html=1;aspect=fixed;fillColor=#dae8fc;strokeColor=#6c8ebf;" vertex="1" parent="1">
          <mxGeometry x="399" y="1890" width="29" height="29" as="geometry" />
        </mxCell>
        <mxCell id="A7s9LG4rhOwQnNxICcNo-300" value="" style="shape=table;html=1;whiteSpace=wrap;startSize=0;container=1;collapsible=0;childLayout=tableLayout;" vertex="1" parent="1">
          <mxGeometry x="267.5" y="2104" width="240" height="60" as="geometry" />
        </mxCell>
        <mxCell id="A7s9LG4rhOwQnNxICcNo-301" value="" style="shape=partialRectangle;html=1;whiteSpace=wrap;collapsible=0;dropTarget=0;pointerEvents=0;fillColor=none;top=0;left=0;bottom=0;right=0;points=[[0,0.5],[1,0.5]];portConstraint=eastwest;" vertex="1" parent="A7s9LG4rhOwQnNxICcNo-300">
          <mxGeometry width="240" height="30" as="geometry" />
        </mxCell>
        <mxCell id="A7s9LG4rhOwQnNxICcNo-302" style="shape=partialRectangle;html=1;whiteSpace=wrap;connectable=0;fillColor=none;top=0;left=0;bottom=0;right=0;overflow=hidden;" vertex="1" parent="A7s9LG4rhOwQnNxICcNo-301">
          <mxGeometry width="30" height="30" as="geometry" />
        </mxCell>
        <mxCell id="A7s9LG4rhOwQnNxICcNo-303" value="A" style="shape=partialRectangle;html=1;whiteSpace=wrap;connectable=0;fillColor=none;top=0;left=0;bottom=0;right=0;overflow=hidden;" vertex="1" parent="A7s9LG4rhOwQnNxICcNo-301">
          <mxGeometry x="30" width="30" height="30" as="geometry" />
        </mxCell>
        <mxCell id="A7s9LG4rhOwQnNxICcNo-304" value="B" style="shape=partialRectangle;html=1;whiteSpace=wrap;connectable=0;fillColor=none;top=0;left=0;bottom=0;right=0;overflow=hidden;" vertex="1" parent="A7s9LG4rhOwQnNxICcNo-301">
          <mxGeometry x="60" width="30" height="30" as="geometry" />
        </mxCell>
        <mxCell id="A7s9LG4rhOwQnNxICcNo-305" value="C" style="shape=partialRectangle;html=1;whiteSpace=wrap;connectable=0;fillColor=none;top=0;left=0;bottom=0;right=0;overflow=hidden;" vertex="1" parent="A7s9LG4rhOwQnNxICcNo-301">
          <mxGeometry x="90" width="30" height="30" as="geometry" />
        </mxCell>
        <mxCell id="A7s9LG4rhOwQnNxICcNo-306" value="D" style="shape=partialRectangle;html=1;whiteSpace=wrap;connectable=0;fillColor=none;top=0;left=0;bottom=0;right=0;overflow=hidden;" vertex="1" parent="A7s9LG4rhOwQnNxICcNo-301">
          <mxGeometry x="120" width="30" height="30" as="geometry" />
        </mxCell>
        <mxCell id="A7s9LG4rhOwQnNxICcNo-307" value="E" style="shape=partialRectangle;html=1;whiteSpace=wrap;connectable=0;fillColor=none;top=0;left=0;bottom=0;right=0;overflow=hidden;" vertex="1" parent="A7s9LG4rhOwQnNxICcNo-301">
          <mxGeometry x="150" width="30" height="30" as="geometry" />
        </mxCell>
        <mxCell id="A7s9LG4rhOwQnNxICcNo-308" value="F" style="shape=partialRectangle;html=1;whiteSpace=wrap;connectable=0;fillColor=none;top=0;left=0;bottom=0;right=0;overflow=hidden;" vertex="1" parent="A7s9LG4rhOwQnNxICcNo-301">
          <mxGeometry x="180" width="30" height="30" as="geometry" />
        </mxCell>
        <mxCell id="A7s9LG4rhOwQnNxICcNo-309" value="G" style="shape=partialRectangle;html=1;whiteSpace=wrap;connectable=0;fillColor=none;top=0;left=0;bottom=0;right=0;overflow=hidden;" vertex="1" parent="A7s9LG4rhOwQnNxICcNo-301">
          <mxGeometry x="210" width="30" height="30" as="geometry" />
        </mxCell>
        <mxCell id="A7s9LG4rhOwQnNxICcNo-310" value="" style="shape=partialRectangle;html=1;whiteSpace=wrap;collapsible=0;dropTarget=0;pointerEvents=0;fillColor=none;top=0;left=0;bottom=0;right=0;points=[[0,0.5],[1,0.5]];portConstraint=eastwest;" vertex="1" parent="A7s9LG4rhOwQnNxICcNo-300">
          <mxGeometry y="30" width="240" height="30" as="geometry" />
        </mxCell>
        <mxCell id="A7s9LG4rhOwQnNxICcNo-311" value="d" style="shape=partialRectangle;html=1;whiteSpace=wrap;connectable=0;fillColor=none;top=0;left=0;bottom=0;right=0;overflow=hidden;" vertex="1" parent="A7s9LG4rhOwQnNxICcNo-310">
          <mxGeometry width="30" height="30" as="geometry" />
        </mxCell>
        <mxCell id="A7s9LG4rhOwQnNxICcNo-312" value="0" style="shape=partialRectangle;html=1;whiteSpace=wrap;connectable=0;fillColor=none;top=0;left=0;bottom=0;right=0;overflow=hidden;" vertex="1" parent="A7s9LG4rhOwQnNxICcNo-310">
          <mxGeometry x="30" width="30" height="30" as="geometry" />
        </mxCell>
        <mxCell id="A7s9LG4rhOwQnNxICcNo-313" value="2" style="shape=partialRectangle;html=1;whiteSpace=wrap;connectable=0;fillColor=none;top=0;left=0;bottom=0;right=0;overflow=hidden;" vertex="1" parent="A7s9LG4rhOwQnNxICcNo-310">
          <mxGeometry x="60" width="30" height="30" as="geometry" />
        </mxCell>
        <mxCell id="A7s9LG4rhOwQnNxICcNo-314" value="5" style="shape=partialRectangle;html=1;whiteSpace=wrap;connectable=0;fillColor=none;top=0;left=0;bottom=0;right=0;overflow=hidden;" vertex="1" parent="A7s9LG4rhOwQnNxICcNo-310">
          <mxGeometry x="90" width="30" height="30" as="geometry" />
        </mxCell>
        <mxCell id="A7s9LG4rhOwQnNxICcNo-315" value="1" style="shape=partialRectangle;html=1;whiteSpace=wrap;connectable=0;fillColor=none;top=0;left=0;bottom=0;right=0;overflow=hidden;" vertex="1" parent="A7s9LG4rhOwQnNxICcNo-310">
          <mxGeometry x="120" width="30" height="30" as="geometry" />
        </mxCell>
        <mxCell id="A7s9LG4rhOwQnNxICcNo-316" value="3" style="shape=partialRectangle;html=1;whiteSpace=wrap;connectable=0;fillColor=none;top=0;left=0;bottom=0;right=0;overflow=hidden;" vertex="1" parent="A7s9LG4rhOwQnNxICcNo-310">
          <mxGeometry x="150" width="30" height="30" as="geometry" />
        </mxCell>
        <mxCell id="A7s9LG4rhOwQnNxICcNo-317" value="5" style="shape=partialRectangle;html=1;whiteSpace=wrap;connectable=0;fillColor=none;top=0;left=0;bottom=0;right=0;overflow=hidden;" vertex="1" parent="A7s9LG4rhOwQnNxICcNo-310">
          <mxGeometry x="180" width="30" height="30" as="geometry" />
        </mxCell>
        <mxCell id="A7s9LG4rhOwQnNxICcNo-318" value="1" style="shape=partialRectangle;html=1;whiteSpace=wrap;connectable=0;fillColor=none;top=0;left=0;bottom=0;right=0;overflow=hidden;" vertex="1" parent="A7s9LG4rhOwQnNxICcNo-310">
          <mxGeometry x="210" width="30" height="30" as="geometry" />
        </mxCell>
        <mxCell id="A7s9LG4rhOwQnNxICcNo-319" style="edgeStyle=none;rounded=0;orthogonalLoop=1;jettySize=auto;html=1;exitX=1;exitY=0.5;exitDx=0;exitDy=0;endArrow=none;endFill=0;strokeWidth=3;" edge="1" parent="1" source="A7s9LG4rhOwQnNxICcNo-282" target="A7s9LG4rhOwQnNxICcNo-282">
          <mxGeometry relative="1" as="geometry" />
        </mxCell>
        <mxCell id="A7s9LG4rhOwQnNxICcNo-320" value="" style="shape=flexArrow;endArrow=classic;html=1;" edge="1" parent="1">
          <mxGeometry width="50" height="50" relative="1" as="geometry">
            <mxPoint x="386.59999999999945" y="1810" as="sourcePoint" />
            <mxPoint x="386.0999999999999" y="1884" as="targetPoint" />
          </mxGeometry>
        </mxCell>
        <mxCell id="A7s9LG4rhOwQnNxICcNo-321" style="rounded=0;orthogonalLoop=1;jettySize=auto;html=1;endArrow=none;endFill=0;fillColor=#dae8fc;strokeColor=#6c8ebf;strokeWidth=3;" edge="1" parent="1" source="A7s9LG4rhOwQnNxICcNo-323" target="A7s9LG4rhOwQnNxICcNo-328">
          <mxGeometry relative="1" as="geometry">
            <mxPoint x="756" y="1969" as="targetPoint" />
          </mxGeometry>
        </mxCell>
        <mxCell id="A7s9LG4rhOwQnNxICcNo-322" value="2" style="edgeLabel;html=1;align=center;verticalAlign=middle;resizable=0;points=[];" vertex="1" connectable="0" parent="A7s9LG4rhOwQnNxICcNo-321">
          <mxGeometry x="0.16" y="2" relative="1" as="geometry">
            <mxPoint x="-11" y="-8" as="offset" />
          </mxGeometry>
        </mxCell>
        <mxCell id="A7s9LG4rhOwQnNxICcNo-323" value="&lt;font style=&quot;font-size: 12px&quot;&gt;A&lt;/font&gt;" style="ellipse;whiteSpace=wrap;html=1;aspect=fixed;fillColor=#dae8fc;strokeColor=#6c8ebf;" vertex="1" parent="1">
          <mxGeometry x="670" y="1983" width="29" height="29" as="geometry" />
        </mxCell>
        <mxCell id="A7s9LG4rhOwQnNxICcNo-324" value="" style="edgeStyle=none;rounded=0;orthogonalLoop=1;jettySize=auto;html=1;endArrow=none;endFill=0;fillColor=#dae8fc;strokeColor=#6c8ebf;strokeWidth=3;" edge="1" parent="1" source="A7s9LG4rhOwQnNxICcNo-328" target="A7s9LG4rhOwQnNxICcNo-331">
          <mxGeometry relative="1" as="geometry" />
        </mxCell>
        <mxCell id="A7s9LG4rhOwQnNxICcNo-325" value="3" style="edgeLabel;html=1;align=center;verticalAlign=middle;resizable=0;points=[];" vertex="1" connectable="0" parent="A7s9LG4rhOwQnNxICcNo-324">
          <mxGeometry x="0.1281" y="1" relative="1" as="geometry">
            <mxPoint x="3" y="-12" as="offset" />
          </mxGeometry>
        </mxCell>
        <mxCell id="A7s9LG4rhOwQnNxICcNo-326" value="" style="edgeStyle=none;rounded=0;orthogonalLoop=1;jettySize=auto;html=1;endArrow=none;endFill=0;fillColor=#dae8fc;strokeColor=#6c8ebf;strokeWidth=3;" edge="1" parent="1" source="A7s9LG4rhOwQnNxICcNo-328" target="A7s9LG4rhOwQnNxICcNo-339">
          <mxGeometry relative="1" as="geometry" />
        </mxCell>
        <mxCell id="A7s9LG4rhOwQnNxICcNo-327" value="1" style="edgeLabel;html=1;align=center;verticalAlign=middle;resizable=0;points=[];" vertex="1" connectable="0" parent="A7s9LG4rhOwQnNxICcNo-326">
          <mxGeometry x="-0.0103" y="1" relative="1" as="geometry">
            <mxPoint x="-8" y="-5" as="offset" />
          </mxGeometry>
        </mxCell>
        <mxCell id="A7s9LG4rhOwQnNxICcNo-328" value="B" style="ellipse;whiteSpace=wrap;html=1;aspect=fixed;fillColor=#dae8fc;strokeColor=#6c8ebf;" vertex="1" parent="1">
          <mxGeometry x="749" y="1954" width="29" height="29" as="geometry" />
        </mxCell>
        <mxCell id="A7s9LG4rhOwQnNxICcNo-329" style="edgeStyle=none;rounded=0;orthogonalLoop=1;jettySize=auto;html=1;exitX=0.5;exitY=1;exitDx=0;exitDy=0;entryX=0.367;entryY=0.03;entryDx=0;entryDy=0;endArrow=none;endFill=0;entryPerimeter=0;fillColor=#dae8fc;strokeColor=#6c8ebf;strokeWidth=3;" edge="1" parent="1" source="A7s9LG4rhOwQnNxICcNo-331" target="A7s9LG4rhOwQnNxICcNo-332">
          <mxGeometry relative="1" as="geometry" />
        </mxCell>
        <mxCell id="A7s9LG4rhOwQnNxICcNo-330" value="5" style="edgeLabel;html=1;align=center;verticalAlign=middle;resizable=0;points=[];" vertex="1" connectable="0" parent="A7s9LG4rhOwQnNxICcNo-329">
          <mxGeometry x="0.2637" relative="1" as="geometry">
            <mxPoint x="7" y="-6" as="offset" />
          </mxGeometry>
        </mxCell>
        <mxCell id="A7s9LG4rhOwQnNxICcNo-331" value="E" style="ellipse;whiteSpace=wrap;html=1;aspect=fixed;fillColor=#dae8fc;strokeColor=#6c8ebf;" vertex="1" parent="1">
          <mxGeometry x="824" y="1965" width="29" height="29" as="geometry" />
        </mxCell>
        <mxCell id="A7s9LG4rhOwQnNxICcNo-332" value="F" style="ellipse;whiteSpace=wrap;html=1;aspect=fixed;fillColor=#dae8fc;strokeColor=#6c8ebf;" vertex="1" parent="1">
          <mxGeometry x="839" y="2040" width="29" height="29" as="geometry" />
        </mxCell>
        <mxCell id="A7s9LG4rhOwQnNxICcNo-333" value="" style="edgeStyle=none;rounded=0;orthogonalLoop=1;jettySize=auto;html=1;endArrow=none;endFill=0;fillColor=#dae8fc;strokeColor=#6c8ebf;strokeWidth=3;" edge="1" parent="1" source="A7s9LG4rhOwQnNxICcNo-337" target="A7s9LG4rhOwQnNxICcNo-338">
          <mxGeometry relative="1" as="geometry" />
        </mxCell>
        <mxCell id="A7s9LG4rhOwQnNxICcNo-334" value="5" style="edgeLabel;html=1;align=center;verticalAlign=middle;resizable=0;points=[];" vertex="1" connectable="0" parent="A7s9LG4rhOwQnNxICcNo-333">
          <mxGeometry x="-0.0423" y="-1" relative="1" as="geometry">
            <mxPoint x="-3" y="13" as="offset" />
          </mxGeometry>
        </mxCell>
        <mxCell id="A7s9LG4rhOwQnNxICcNo-335" value="" style="edgeStyle=none;rounded=0;orthogonalLoop=1;jettySize=auto;html=1;endArrow=none;endFill=0;fillColor=#dae8fc;strokeColor=#6c8ebf;strokeWidth=3;" edge="1" parent="1" source="A7s9LG4rhOwQnNxICcNo-337" target="A7s9LG4rhOwQnNxICcNo-331">
          <mxGeometry relative="1" as="geometry" />
        </mxCell>
        <mxCell id="A7s9LG4rhOwQnNxICcNo-336" value="1" style="edgeLabel;html=1;align=center;verticalAlign=middle;resizable=0;points=[];" vertex="1" connectable="0" parent="A7s9LG4rhOwQnNxICcNo-335">
          <mxGeometry x="-0.0141" y="2" relative="1" as="geometry">
            <mxPoint x="-5" y="-9" as="offset" />
          </mxGeometry>
        </mxCell>
        <mxCell id="A7s9LG4rhOwQnNxICcNo-337" value="D" style="ellipse;whiteSpace=wrap;html=1;aspect=fixed;fillColor=#dae8fc;strokeColor=#6c8ebf;" vertex="1" parent="1">
          <mxGeometry x="768" y="2046" width="29" height="29" as="geometry" />
        </mxCell>
        <mxCell id="A7s9LG4rhOwQnNxICcNo-338" value="C" style="ellipse;whiteSpace=wrap;html=1;aspect=fixed;fillColor=#dae8fc;strokeColor=#6c8ebf;" vertex="1" parent="1">
          <mxGeometry x="680" y="2048" width="29" height="29" as="geometry" />
        </mxCell>
        <mxCell id="A7s9LG4rhOwQnNxICcNo-339" value="G" style="ellipse;whiteSpace=wrap;html=1;aspect=fixed;fillColor=#dae8fc;strokeColor=#6c8ebf;" vertex="1" parent="1">
          <mxGeometry x="782" y="1890" width="29" height="29" as="geometry" />
        </mxCell>
        <mxCell id="A7s9LG4rhOwQnNxICcNo-340" value="" style="shape=table;html=1;whiteSpace=wrap;startSize=0;container=1;collapsible=0;childLayout=tableLayout;" vertex="1" parent="1">
          <mxGeometry x="650.5" y="2104" width="240" height="60" as="geometry" />
        </mxCell>
        <mxCell id="A7s9LG4rhOwQnNxICcNo-341" value="" style="shape=partialRectangle;html=1;whiteSpace=wrap;collapsible=0;dropTarget=0;pointerEvents=0;fillColor=none;top=0;left=0;bottom=0;right=0;points=[[0,0.5],[1,0.5]];portConstraint=eastwest;" vertex="1" parent="A7s9LG4rhOwQnNxICcNo-340">
          <mxGeometry width="240" height="30" as="geometry" />
        </mxCell>
        <mxCell id="A7s9LG4rhOwQnNxICcNo-342" style="shape=partialRectangle;html=1;whiteSpace=wrap;connectable=0;fillColor=none;top=0;left=0;bottom=0;right=0;overflow=hidden;" vertex="1" parent="A7s9LG4rhOwQnNxICcNo-341">
          <mxGeometry width="30" height="30" as="geometry" />
        </mxCell>
        <mxCell id="A7s9LG4rhOwQnNxICcNo-343" value="A" style="shape=partialRectangle;html=1;whiteSpace=wrap;connectable=0;fillColor=none;top=0;left=0;bottom=0;right=0;overflow=hidden;" vertex="1" parent="A7s9LG4rhOwQnNxICcNo-341">
          <mxGeometry x="30" width="30" height="30" as="geometry" />
        </mxCell>
        <mxCell id="A7s9LG4rhOwQnNxICcNo-344" value="B" style="shape=partialRectangle;html=1;whiteSpace=wrap;connectable=0;fillColor=none;top=0;left=0;bottom=0;right=0;overflow=hidden;" vertex="1" parent="A7s9LG4rhOwQnNxICcNo-341">
          <mxGeometry x="60" width="30" height="30" as="geometry" />
        </mxCell>
        <mxCell id="A7s9LG4rhOwQnNxICcNo-345" value="C" style="shape=partialRectangle;html=1;whiteSpace=wrap;connectable=0;fillColor=none;top=0;left=0;bottom=0;right=0;overflow=hidden;" vertex="1" parent="A7s9LG4rhOwQnNxICcNo-341">
          <mxGeometry x="90" width="30" height="30" as="geometry" />
        </mxCell>
        <mxCell id="A7s9LG4rhOwQnNxICcNo-346" value="D" style="shape=partialRectangle;html=1;whiteSpace=wrap;connectable=0;fillColor=none;top=0;left=0;bottom=0;right=0;overflow=hidden;" vertex="1" parent="A7s9LG4rhOwQnNxICcNo-341">
          <mxGeometry x="120" width="30" height="30" as="geometry" />
        </mxCell>
        <mxCell id="A7s9LG4rhOwQnNxICcNo-347" value="E" style="shape=partialRectangle;html=1;whiteSpace=wrap;connectable=0;fillColor=none;top=0;left=0;bottom=0;right=0;overflow=hidden;" vertex="1" parent="A7s9LG4rhOwQnNxICcNo-341">
          <mxGeometry x="150" width="30" height="30" as="geometry" />
        </mxCell>
        <mxCell id="A7s9LG4rhOwQnNxICcNo-348" value="F" style="shape=partialRectangle;html=1;whiteSpace=wrap;connectable=0;fillColor=none;top=0;left=0;bottom=0;right=0;overflow=hidden;" vertex="1" parent="A7s9LG4rhOwQnNxICcNo-341">
          <mxGeometry x="180" width="30" height="30" as="geometry" />
        </mxCell>
        <mxCell id="A7s9LG4rhOwQnNxICcNo-349" value="G" style="shape=partialRectangle;html=1;whiteSpace=wrap;connectable=0;fillColor=none;top=0;left=0;bottom=0;right=0;overflow=hidden;" vertex="1" parent="A7s9LG4rhOwQnNxICcNo-341">
          <mxGeometry x="210" width="30" height="30" as="geometry" />
        </mxCell>
        <mxCell id="A7s9LG4rhOwQnNxICcNo-350" value="" style="shape=partialRectangle;html=1;whiteSpace=wrap;collapsible=0;dropTarget=0;pointerEvents=0;fillColor=none;top=0;left=0;bottom=0;right=0;points=[[0,0.5],[1,0.5]];portConstraint=eastwest;" vertex="1" parent="A7s9LG4rhOwQnNxICcNo-340">
          <mxGeometry y="30" width="240" height="30" as="geometry" />
        </mxCell>
        <mxCell id="A7s9LG4rhOwQnNxICcNo-351" value="d" style="shape=partialRectangle;html=1;whiteSpace=wrap;connectable=0;fillColor=none;top=0;left=0;bottom=0;right=0;overflow=hidden;" vertex="1" parent="A7s9LG4rhOwQnNxICcNo-350">
          <mxGeometry width="30" height="30" as="geometry" />
        </mxCell>
        <mxCell id="A7s9LG4rhOwQnNxICcNo-352" value="0" style="shape=partialRectangle;html=1;whiteSpace=wrap;connectable=0;fillColor=none;top=0;left=0;bottom=0;right=0;overflow=hidden;" vertex="1" parent="A7s9LG4rhOwQnNxICcNo-350">
          <mxGeometry x="30" width="30" height="30" as="geometry" />
        </mxCell>
        <mxCell id="A7s9LG4rhOwQnNxICcNo-353" value="2" style="shape=partialRectangle;html=1;whiteSpace=wrap;connectable=0;fillColor=none;top=0;left=0;bottom=0;right=0;overflow=hidden;" vertex="1" parent="A7s9LG4rhOwQnNxICcNo-350">
          <mxGeometry x="60" width="30" height="30" as="geometry" />
        </mxCell>
        <mxCell id="A7s9LG4rhOwQnNxICcNo-354" value="5" style="shape=partialRectangle;html=1;whiteSpace=wrap;connectable=0;fillColor=none;top=0;left=0;bottom=0;right=0;overflow=hidden;" vertex="1" parent="A7s9LG4rhOwQnNxICcNo-350">
          <mxGeometry x="90" width="30" height="30" as="geometry" />
        </mxCell>
        <mxCell id="A7s9LG4rhOwQnNxICcNo-355" value="1" style="shape=partialRectangle;html=1;whiteSpace=wrap;connectable=0;fillColor=none;top=0;left=0;bottom=0;right=0;overflow=hidden;" vertex="1" parent="A7s9LG4rhOwQnNxICcNo-350">
          <mxGeometry x="120" width="30" height="30" as="geometry" />
        </mxCell>
        <mxCell id="A7s9LG4rhOwQnNxICcNo-356" value="3" style="shape=partialRectangle;html=1;whiteSpace=wrap;connectable=0;fillColor=none;top=0;left=0;bottom=0;right=0;overflow=hidden;" vertex="1" parent="A7s9LG4rhOwQnNxICcNo-350">
          <mxGeometry x="150" width="30" height="30" as="geometry" />
        </mxCell>
        <mxCell id="A7s9LG4rhOwQnNxICcNo-357" value="5" style="shape=partialRectangle;html=1;whiteSpace=wrap;connectable=0;fillColor=none;top=0;left=0;bottom=0;right=0;overflow=hidden;" vertex="1" parent="A7s9LG4rhOwQnNxICcNo-350">
          <mxGeometry x="180" width="30" height="30" as="geometry" />
        </mxCell>
        <mxCell id="A7s9LG4rhOwQnNxICcNo-358" value="1" style="shape=partialRectangle;html=1;whiteSpace=wrap;connectable=0;fillColor=none;top=0;left=0;bottom=0;right=0;overflow=hidden;" vertex="1" parent="A7s9LG4rhOwQnNxICcNo-350">
          <mxGeometry x="210" width="30" height="30" as="geometry" />
        </mxCell>
        <mxCell id="A7s9LG4rhOwQnNxICcNo-359" style="edgeStyle=none;rounded=0;orthogonalLoop=1;jettySize=auto;html=1;exitX=1;exitY=0.5;exitDx=0;exitDy=0;endArrow=none;endFill=0;strokeWidth=3;" edge="1" parent="1" source="A7s9LG4rhOwQnNxICcNo-328" target="A7s9LG4rhOwQnNxICcNo-328">
          <mxGeometry relative="1" as="geometry" />
        </mxCell>
        <mxCell id="A7s9LG4rhOwQnNxICcNo-360" value="&lt;p style=&quot;font-size: 16px&quot;&gt;&lt;/p&gt;&lt;ol style=&quot;font-size: 16px&quot;&gt;&lt;li&gt;&lt;font face=&quot;Tahoma&quot; style=&quot;font-size: 16px&quot;&gt;&lt;span&gt;蓝色点为 T 集合&lt;/span&gt;&lt;br&gt;&lt;/font&gt;&lt;/li&gt;&lt;li&gt;&lt;font face=&quot;Tahoma&quot; style=&quot;font-size: 16px&quot;&gt;&lt;span&gt;白色点为 S 集合&lt;/span&gt;&lt;br&gt;&lt;/font&gt;&lt;/li&gt;&lt;li&gt;&lt;font face=&quot;Tahoma&quot; style=&quot;font-size: 16px&quot;&gt;&lt;span&gt;蓝色边为 T 集合中的边，&lt;/span&gt;&lt;/font&gt;即最终被选择到生成树中的边&lt;/li&gt;&lt;li&gt;&lt;span&gt;&lt;font face=&quot;Tahoma&quot; style=&quot;font-size: 16px&quot;&gt;绿色边为与 T 集合相邻的边&lt;/font&gt;&lt;/span&gt;&lt;br&gt;&lt;/li&gt;&lt;/ol&gt;&lt;p&gt;&lt;/p&gt;" style="text;html=1;strokeColor=none;fillColor=none;align=left;verticalAlign=middle;whiteSpace=wrap;rounded=0;" vertex="1" parent="1">
          <mxGeometry x="1018.5" y="1935" width="255" height="125" as="geometry" />
        </mxCell>
        <mxCell id="A7s9LG4rhOwQnNxICcNo-361" value="" style="shape=flexArrow;endArrow=classic;html=1;" edge="1" parent="1">
          <mxGeometry width="50" height="50" relative="1" as="geometry">
            <mxPoint x="542.9999999999995" y="1979.1" as="sourcePoint" />
            <mxPoint x="619" y="1979.1" as="targetPoint" />
          </mxGeometry>
        </mxCell>
      </root>
    </mxGraphModel>
  </diagram>
</mxfile>
